<?xml version="1.0" encoding="utf-8"?>
<!-- Generator: Adobe Illustrator 23.0.2, SVG Export Plug-In . SVG Version: 6.00 Build 0)  -->
<svg version="1.1" xmlns="http://www.w3.org/2000/svg" xmlns:xlink="http://www.w3.org/1999/xlink" x="0px" y="0px"
	 viewBox="0 0 1920 1080" style="enable-background:new 0 0 1920 1080;" xml:space="preserve">
<style type="text/css">
	.st0{fill-rule:evenodd;clip-rule:evenodd;fill:#534E4E;stroke:#808080;stroke-width:2;stroke-miterlimit:10;}
	.st1{fill:none;stroke:url(#SVGID_1_);stroke-width:20;stroke-miterlimit:10;}
	.st2{fill:none;stroke:#534E4E;stroke-width:0.75;stroke-miterlimit:10;}
	.st3{fill:#534E4E;}
	.st4{fill:#D8AFAF;}
	.st5{display:none;}
	.st6{display:inline;}
	.st7{fill-rule:evenodd;clip-rule:evenodd;fill:#4D4D4D;}
	.st8{fill:#808080;}
	.st9{fill-rule:evenodd;clip-rule:evenodd;fill:none;}
	.st10{fill:#FFFFFF;stroke:#000000;stroke-miterlimit:10;}
	.st11{font-family:'KozGoPro-Regular-90ms-RKSJ-H';}
	.st12{font-size:137px;}
</style>
<g id="レイヤー_3">
	<rect x="-1" class="st0" width="1921" height="1080"/>
</g>
<g id="レイヤー_1">
	<g>
		<linearGradient id="SVGID_1_" gradientUnits="userSpaceOnUse" x1="0" y1="497" x2="1919" y2="497">
			<stop  offset="0" style="stop-color:#FF7BAC"/>
			<stop  offset="1" style="stop-color:#FF7BAC;stop-opacity:0"/>
		</linearGradient>
		<path class="st1" d="M0,460c159.92,0,159.92,74,319.83,74c159.92,0,159.92-74,319.83-74c159.91,0,159.91,74,319.83,74
			c159.92,0,159.92-74,319.83-74c159.92,0,159.92,74,319.84,74s159.92-74,319.84-74"/>
	</g>
	<line class="st2" x1="0.5" y1="450.5" x2="9.5" y2="459.5"/>
	<line class="st2" x1="0.5" y1="469.5" x2="9.5" y2="459.5"/>
	<line class="st2" x1="0.5" y1="450.5" x2="0.5" y2="469.5"/>
	<g>
		<g>
			<path class="st3" d="M6.2,461.32c1.93,0,1.93-3,0-3C4.27,458.32,4.26,461.32,6.2,461.32L6.2,461.32z"/>
		</g>
	</g>
	<g>
		<g>
			<path class="st3" d="M4.81,460.32c-0.14,0.24-0.28,0.48-0.42,0.71c-1.31,0.69-0.16,2.49,1.14,1.94c1.63-0.7,4.17-2.7,2.66-4.58
				c-0.45,0.59-0.91,1.18-1.36,1.77c0.18,0.09,0.37,0.18,0.55,0.28c1.13,0.57,2.27-0.81,1.36-1.77c-2-2.12-4.15-4.02-6.02-6.28
				c-0.92-1.12-2.51,0.48-1.59,1.59c1.86,2.26,4.01,4.16,6.02,6.28c0.45-0.59,0.91-1.18,1.36-1.77c-0.18-0.09-0.37-0.18-0.55-0.28
				c-1.19-0.6-2.15,0.78-1.36,1.77c-0.07-0.15-0.13-0.3-0.2-0.45c-0.21,0.32-0.47,0.59-0.78,0.81c-0.39,0.31-0.77,0.5-1.23,0.69
				c0.38,0.65,0.76,1.3,1.14,1.94c1.06-0.56,1.47-1.5,1.53-2.66C7.14,458.88,4.89,458.88,4.81,460.32L4.81,460.32z"/>
		</g>
	</g>
	<g>
		<g>
			<path class="st3" d="M1.29,453.52c1.45,0,1.45-2.25,0-2.25C-0.16,451.27-0.16,453.52,1.29,453.52L1.29,453.52z"/>
		</g>
	</g>
	<g>
		<g>
			<path class="st3" d="M0.61,454.47c0.66,1.82,1.57,3.48,2.53,5.15c0.51,0.9,1.74,0.6,2.06-0.27c0.09-0.24,0.17-0.47,0.26-0.71
				c-0.69,0.09-1.37,0.18-2.06,0.27c0.35,0.54-1.17,2.27-0.83,3.24c0.28,0.81,1.03,0.79,1.39,1c-0.17-0.42-0.34-0.85-0.52-1.27
				c-0.03,0.15-0.08,0.3-0.14,0.45c-0.34,0.9,0.63,1.49,1.38,1.38c0.45-0.06,0.67-0.08,1.03-0.27c0.36-0.19,0.54-0.59,0.56-0.97
				c0.04-1.05-0.79-1.88-1.39-2.64c-1.21-1.55-1.36-3.36-2.24-5.06c-0.55-1.06-2.02-0.47-2.1,0.57c-0.25,3.52,0.43,6.96-0.03,10.52
				c-0.18,1.43,2.07,1.42,2.25,0c0.46-3.56-0.23-7,0.03-10.52c-0.7,0.19-1.4,0.38-2.1,0.57c0.56,1.08,0.68,2.33,1.2,3.43
				c0.32,0.69,2.14,2.56,2.12,3.13c0.19-0.32,0.37-0.65,0.56-0.97c-0.17,0.01-0.33,0.03-0.5,0.04c0.46,0.46,0.92,0.92,1.38,1.38
				c0.06-0.14,0.11-0.29,0.14-0.45c0.12-0.49-0.08-1.01-0.52-1.27c-0.06-0.03-0.65-0.28-0.64-0.2c0.08,0.63,1.14-0.96,1.16-1.03
				c0.32-0.84,0.22-1.45-0.27-2.21c-0.55-0.85-1.73-0.64-2.06,0.27c-0.09,0.24-0.17,0.47-0.26,0.71c0.69-0.09,1.37-0.18,2.06-0.27
				c-0.85-1.5-1.71-2.98-2.3-4.62C2.29,452.53,0.12,453.11,0.61,454.47L0.61,454.47z"/>
		</g>
	</g>
	<g>
		<g>
			<path class="st3" d="M2.19,463.17c-0.01,0.49,0.23,0.99,0.67,1.24c0.4,0.24,0.92,0.13,1.2,0.17c-0.19-0.05-0.38-0.1-0.57-0.15
				c-0.02-0.02-0.05-0.04-0.07-0.05c0.08-0.59,0.15-1.18,0.23-1.77c-0.47,0.29-0.78,0.77-1.19,1.14c-0.43,0.4-0.84,0.8-1.15,1.31
				c-0.74,1.25,1.2,2.38,1.94,1.14c0.2-0.34,0.5-0.59,0.79-0.85c0.22-0.2,0.59-0.69,0.73-0.78c0.67-0.42,0.68-1.19,0.23-1.77
				c-0.19-0.25-0.5-0.38-0.8-0.43c-0.1-0.02-0.21-0.03-0.31-0.03c-0.07,0-0.14,0.01-0.2,0.02c-0.21,0.02-0.2,0.03,0.04,0.01
				c0.17,0.1,0.33,0.19,0.5,0.29c-0.02-0.02-0.05-0.05-0.07-0.07c0.1,0.17,0.19,0.33,0.29,0.5c0,0.03,0,0.07,0,0.1
				C4.48,461.72,2.23,461.73,2.19,463.17L2.19,463.17z"/>
		</g>
	</g>
	<g>
		<g>
			<path class="st3" d="M1.36,468.29c1.45,0,1.45-2.25,0-2.25C-0.09,466.04-0.09,468.29,1.36,468.29L1.36,468.29z"/>
		</g>
	</g>
	<g>
		<g>
			<path class="st3" d="M1.58,467.79c1.45,0,1.45-2.25,0-2.25C0.13,465.54,0.13,467.79,1.58,467.79L1.58,467.79z"/>
		</g>
	</g>
	<g>
		<g>
			<path class="st3" d="M1.27,468.65c1.45,0,1.45-2.25,0-2.25C-0.18,466.4-0.18,468.65,1.27,468.65L1.27,468.65z"/>
		</g>
	</g>
	<g>
		<g>
			<path class="st3" d="M0.46,450.86c0.48,0,0.48-0.75,0-0.75C-0.03,450.11-0.03,450.86,0.46,450.86L0.46,450.86z"/>
		</g>
	</g>
	<g>
		<g>
			<path class="st3" d="M0.41,450.82c0.48,0,0.48-0.75,0-0.75C-0.07,450.07-0.07,450.82,0.41,450.82L0.41,450.82z"/>
		</g>
	</g>
	<g>
		<g>
			<path class="st3" d="M0.47,450.86c0.48,0,0.48-0.75,0-0.75C-0.01,450.11-0.01,450.86,0.47,450.86L0.47,450.86z"/>
		</g>
	</g>
	<g>
		<g>
			<path class="st3" d="M0.41,450.81c0.48,0,0.48-0.75,0-0.75C-0.07,450.06-0.07,450.81,0.41,450.81L0.41,450.81z"/>
		</g>
	</g>
	<g>
		<g>
			<path class="st3" d="M0.37,469.86c0.48,0,0.48-0.75,0-0.75C-0.11,469.11-0.11,469.86,0.37,469.86L0.37,469.86z"/>
		</g>
	</g>
	<g>
		<g>
			<path class="st3" d="M0.37,469.93c0.48,0,0.48-0.75,0-0.75C-0.11,469.18-0.11,469.93,0.37,469.93L0.37,469.93z"/>
		</g>
	</g>
	<g>
		<g>
			<path class="st3" d="M0.37,470.06c0.48,0,0.48-0.75,0-0.75C-0.11,469.31-0.11,470.06,0.37,470.06L0.37,470.06z"/>
		</g>
	</g>
	<g>
		<g>
			<path class="st3" d="M0.34,470.41c0.48,0,0.48-0.75,0-0.75C-0.14,469.66-0.14,470.41,0.34,470.41L0.34,470.41z"/>
		</g>
	</g>
	<g>
		<g>
			<path class="st3" d="M0.34,450.68c0.48,0,0.48-0.75,0-0.75C-0.14,449.93-0.14,450.68,0.34,450.68L0.34,450.68z"/>
		</g>
	</g>
	<g>
		<g>
			<path class="st3" d="M9.47,459.87c0.48,0,0.48-0.75,0-0.75C8.99,459.12,8.99,459.87,9.47,459.87L9.47,459.87z"/>
		</g>
	</g>
	<g>
		<g>
			<path class="st3" d="M9.48,459.87c0.48,0,0.48-0.75,0-0.75C9,459.12,9,459.87,9.48,459.87L9.48,459.87z"/>
		</g>
	</g>
</g>
<g id="レイヤー_2">
	<g>
		<g>
			<path class="st4" d="M964.76,469.15c-55.48-4.12-110.25-16.27-162.3-35.92c-25.18-9.51-50.18-20.5-73.29-34.37
				c-22.14-13.28-42.63-30.15-56.28-52.36c-6.19-10.07-10.82-20.93-13.35-32.49c-1.45-6.66-2.03-13.43-2.39-20.23
				c-0.33-6.33-1.84-14.7,0.55-20.81c3.58-9.14,15.87-11.33,24.46-11.79c11.73-0.62,23.69,0.52,35.21,2.71
				c49.74,9.44,93.4,39.17,130.35,72.56c44.4,40.11,82.61,86.81,113.45,138.06c3.98,6.61,14.36,0.58,10.36-6.06
				c-29.27-48.64-65.11-93.34-106.43-132.28c-38.66-36.43-84.06-69.73-136.59-82.16c-12.68-3-25.73-4.73-38.76-4.93
				c-11.28-0.17-23.76,0.85-33.34,7.44c-11.06,7.61-11.98,19.14-11.5,31.6c0.54,14.07,1.84,28.01,6.58,41.36
				c19.02,53.56,71.65,83.08,120.9,104.38c61.01,26.39,126.08,42.34,192.37,47.25C972.46,481.72,972.43,469.72,964.76,469.15
				L964.76,469.15z"/>
		</g>
	</g>
	<g>
		<g>
			<path class="st4" d="M974.69,481.15c52.41-4.67,103.43-19.09,150.76-42.05c44.46-21.57,88.09-50.27,107.59-97.7
				c4.8-11.67,7.62-23.89,8.82-36.44c0.66-6.86,0.88-13.76,1.05-20.64c0.16-6.36,0.04-12.78-2.72-18.64
				c-9.36-19.91-36.67-17.84-54.61-14.85c-46.97,7.83-86.74,40.68-118.41,74.37c-39.88,42.44-72.9,91.3-99.01,143.28
				c-3.46,6.88,6.89,12.97,10.36,6.06c21.83-43.44,48.4-84.56,79.95-121.59c28.78-33.79,62.83-67.78,105.19-83.71
				c9.5-3.57,19.45-6.27,29.55-7.47c8.89-1.05,19.24-1.97,27.72,1.58c11.38,4.76,10.17,16.09,9.81,26.62
				c-0.42,12.11-1.46,24.01-4.86,35.68c-13.43,46.21-52.77,75.08-93.44,96.49c-48.88,25.74-102.69,42.11-157.76,47.02
				C967.06,469.83,966.99,481.84,974.69,481.15L974.69,481.15z"/>
		</g>
	</g>
	<g>
		<g>
			<path class="st4" d="M978.02,468.18c-5.42,3.32-10.89,6.55-16.41,9.69c-6.71,3.82-0.67,14.19,6.06,10.36
				c5.52-3.15,10.99-6.38,16.41-9.69C990.65,474.51,984.63,464.13,978.02,468.18L978.02,468.18z"/>
		</g>
	</g>
	<g>
		<g>
			<path class="st4" d="M977.97,461.82c-57.48,25.2-116.72,46.39-177.18,63.24c-59.96,16.72-121.15,29.24-182.91,37.08
				c-34.49,4.38-69.15,7.31-103.89,8.86c-7.69,0.34-7.73,12.34,0,12c62.7-2.79,125.19-10.18,186.82-22.06
				c61.96-11.95,123.03-28.45,182.63-49.18c34.04-11.84,67.57-25.1,100.58-39.57C991.08,469.09,984.98,458.74,977.97,461.82
				L977.97,461.82z"/>
		</g>
	</g>
	<g>
		<g>
			<path class="st4" d="M511.14,582.59c4.41,2.67,8.88,5.23,13.45,7.63c4.14,2.17,9.31,3.78,13.02,6.58
				c-0.74-1.3-1.49-2.59-2.23-3.89c0.01-0.53-3.79,3.16-4.43,3.78c-2.01,1.93-4.1,3.77-6.27,5.51c-4.27,3.42-8.87,6.37-13.65,9.03
				c-5.06,2.82-0.53,10.59,4.54,7.77c5.7-3.17,11.08-6.82,16.12-10.96c3.84-3.15,10.46-7.81,12.28-12.59
				c2.34-6.14-5.04-8.09-9.17-10.12c-6.53-3.21-12.89-6.75-19.12-10.52C510.72,571.81,506.19,579.59,511.14,582.59L511.14,582.59z"
				/>
		</g>
	</g>
	<g>
		<g>
			<path class="st4" d="M514.95,619.51c86.69-3.48,170.93-28.34,251.02-60.44c21.01-8.42,41.8-17.73,59.87-31.55
				c4.54-3.47,0.06-11.29-4.54-7.77c-16.03,12.26-34.23,21.05-52.83,28.66c-19.46,7.97-39.19,15.33-59.08,22.18
				c-39.87,13.73-80.66,25.07-122.25,32.22c-23.88,4.11-47.99,6.72-72.2,7.69C509.18,610.75,509.15,619.75,514.95,619.51
				L514.95,619.51z"/>
		</g>
	</g>
	<g>
		<g>
			<path class="st4" d="M529.48,584.22c2.08,2.22,4.7,3.32,7.5,4.35c0.5,0.18,3.38,0.85,3.47,1.51c-0.01-0.04-4.32,3.26-4.51,3.41
				c-5.31,4.14-10.72,8.15-10.73,15.51c0,2.94,2.88,5.1,5.7,4.34c9.01-2.42,16.4-7.97,21.35-15.87c-2.8-0.76-5.59-1.51-8.39-2.27
				c0.08,3.13-0.74,5.4-2.56,7.89c2.74,0.36,5.48,0.72,8.22,1.07c-1.03-5.84-2.05-11.68-3.08-17.52c-0.88-5-9.08-3.84-8.84,1.2
				c0.23,4.82,0.93,9.52,2.17,14.19c1.4,5.26,8.27,3.56,8.84-1.2c0.68-5.65,0.94-11.29,0.79-16.97c-2.95,0.4-5.89,0.8-8.84,1.2
				c0.8,3.14,1.59,6.28,2.39,9.42c2.89-0.8,5.79-1.6,8.68-2.39c-3.02-8.55,11.63-5.72,15.33-4.74c0.4-2.95,0.8-5.89,1.2-8.84
				c-9.52-0.24-19.04-0.48-28.57-0.72c0,3,0,6,0,9c17-1.41,34.04-1.7,51.08-0.88c0-3,0-6,0-9c-7.09,0.2-14.08,1.15-20.97,2.87
				c-4.81,1.2-3.95,9.27,1.2,8.84c20.73-1.72,41.46-3.44,62.19-5.17c5.7-0.47,5.84-9.29,0-9c-4.28,0.21-8.56,0.43-12.84,0.64
				c0,3,0,6,0,9c12.38-1.14,24.65-3.09,36.77-5.88c4.97-1.15,3.85-8.9-1.2-8.84c-11.72,0.13-23.36,1.37-34.86,3.65
				c-5.08,1.01-3.76,8.79,1.2,8.84c6.66,0.07,13.15-0.86,19.52-2.82c4.91-1.52,3.88-8.58-1.2-8.84c-17.57-0.89-35.13-0.31-52.6,1.75
				c-5.64,0.66-5.83,9.52,0,9c7.79-0.69,15.59-1.04,23.41-1.04c-0.4-2.95-0.8-5.89-1.2-8.84c-17.15,4.57-34.03,10.02-50.6,16.36
				c-5.3,2.03-3.27,10.37,2.39,8.68c2.89-0.87,5.79-1.73,8.68-2.6c3.38-1.01,4.8-6.56,1.07-8.22c-8.36-3.75-17.48-2.48-24.2,3.89
				c2.56,1.06,5.12,2.12,7.68,3.18c0.08-0.05,0.16-0.11,0.25-0.16c-2.2-1.69-4.41-3.39-6.61-5.08c-1.14,7.96-2.28,15.92-3.42,23.88
				c-0.59,4.11,4.07,7.92,7.52,4.38c2.4-2.46,4.79-4.92,7.19-7.37c2.4-2.46,1.26-6.54-1.99-7.52c-1.58-0.48-3.16-0.96-4.74-1.43
				c1.05,1.85,2.1,3.69,3.14,5.54c1.09-2.98,3.32-4.89,6.32-5.79c-1.85-1.85-3.69-3.69-5.54-5.54c-0.73,1.86-1.8,3.12-3.25,4.44
				c-2.97,2.71-0.56,7.61,3.18,7.68c6.98,0.14,13.86-0.56,20.69-2c-1.16-2.74-2.31-5.48-3.47-8.22c-1.37,0.62-2.74,1.24-4.1,1.86
				c-4.05,1.83-2.05,8.7,2.27,8.39c3.41-0.25,5.81-1.2,8.26-3.63c2.26-2.24,1.41-6.88-1.99-7.52c-5.75-1.09-10.83-0.42-16.09,2.14
				c-4.68,2.28-1.35,9.46,3.47,8.22c3.25-0.84,6.18-2.15,8.93-4.08c4.75-3.34,0.71-10.26-4.54-7.77c-4.13,1.96-8.25,3.92-12.38,5.87
				c1.51,2.59,3.03,5.18,4.54,7.77c7.6-4.13,15.75-6.7,24.38-7.5c-1.45-1.9-2.89-3.8-4.34-5.7c-0.96,3.64-2.75,6.1-5.68,8.41
				c2.12,2.12,4.24,4.24,6.36,6.36c2.6-2.88,5.19-5.75,7.79-8.63c2.41-2.67,0.95-7.98-3.18-7.68c-5.35,0.38-10.45,1.4-15.47,3.29
				c1.46,2.51,2.92,5.01,4.38,7.52c2.82-2.66,5.79-4.83,9.15-6.75c-1.82-2.36-3.64-4.71-5.45-7.07c-1.73,2-3.34,3.16-5.88,3.91
				c1.16,2.74,2.31,5.48,3.47,8.22c2.78-1.66,5.55-3.32,8.33-4.98c-1.82-2.36-3.64-4.71-5.45-7.07
				c-7.29,6.3-15.56,11.25-24.57,14.65c-5.37,2.03-3.04,10.73,2.39,8.68c11.5-4.34,23.41-7.14,35.67-8.16
				c4.89-0.4,6.32-7.38,1.2-8.84c-8.41-2.4-16.75-1.16-25.2,0.38c0.8,2.89,1.6,5.79,2.39,8.68c4.63-1.64,9.26-3.27,13.9-4.91
				c3.8-1.34,4.73-7.81,0-8.68c-3.77-0.69-7.43-1.01-11.26-0.79c0.4,2.95,0.8,5.89,1.2,8.84c12.11-1.69,24.22-3.38,36.33-5.08
				c5.06-0.71,3.79-8.96-1.2-8.84c-9.52,0.24-18.94,1.19-28.33,2.78c-5.01,0.85-3.83,9.04,1.2,8.84c5.8-0.23,11.59-0.46,17.39-0.69
				c5.8-0.23,5.78-8.71,0-9c-10.1-0.51-20.09,0.41-29.95,2.63c-4.93,1.11-3.88,9.02,1.2,8.84c9.43-0.33,18.87-0.66,28.3-0.98
				c0-3,0-6,0-9c-3.86,0.36-7.14,1.23-10.68,2.81c-4.09,1.83-2.02,8.64,2.27,8.39c14.66-0.87,29.14-3.29,43.26-7.33
				c-1.16-2.74-2.31-5.48-3.47-8.22c-9.51,7.34-20.69,10.8-32.68,9.96c0,3,0,6,0,9c7.9-0.87,15.11-3.31,21.69-7.83
				c3.12-2.14,2.83-7.11-1.07-8.22c-3.57-1.02-7.14-2.03-10.71-3.05c-0.4,2.95-0.8,5.89-1.2,8.84c4.87-0.3,9.75-0.59,14.62-0.89
				c2.27-0.14,4.55-0.28,6.82-0.42c1.3-0.08,2.6-0.16,3.9-0.24c2.42,0.49,2.83-0.47,1.21-2.89c0.69-0.9,1.38-1.79,2.07-2.69
				c-0.21,0.14-0.43,0.28-0.64,0.41c-4.12,2.65-1.59,9.87,3.47,8.22c3.14-1.02,4.8-2.63,5.74-5.81c0.56-1.86-0.36-4.14-2.07-5.08
				c-2.56-1.42-4.64-1.64-7.51-1.1c1.69,2.2,3.39,4.41,5.08,6.61c0.66-1.1,1.61-1.74,2.85-1.92c-1.69-0.69-3.39-1.38-5.08-2.07
				c0.08,0.73,0.16,1.46,0.25,2.18c-0.93,3.76,3.16,7.12,6.61,5.08c-0.12-0.2-0.24-0.39-0.35-0.59c3.37,1.8,7.74-1.19,6.61-5.08
				c-0.13,0.07-0.26,0.14-0.38,0.22c-0.9,0.69-1.79,1.38-2.69,2.07c-0.31,0.02-0.61,0.03-0.92,0.05c-0.9-0.69-1.79-1.38-2.69-2.07
				c0.14,0.19,0.28,0.39,0.42,0.58c0-1.51,0-3.03,0-4.54c-0.08,0.19-0.17,0.39-0.25,0.58c2.36-0.3,4.71-0.61,7.07-0.91
				c-1.08-0.87-1.77-1.97-2.08-3.32c-2.51,1.46-5.01,2.92-7.52,4.38c1.5,1.45,3,2.9,4.5,4.34c2.16,2.08,5.48,1.54,7.07-0.91
				c3.2-4.94,6.39-9.88,9.59-14.83c1.58-2.44,0.02-5.9-2.69-6.61c-1.83-0.48-3.65-0.96-5.48-1.44c-0.4,2.95-0.8,5.89-1.2,8.84
				c20.11,1.41,40.04-3.99,59.56-8.09c20.43-4.29,40.87-8.59,61.3-12.88c-0.8-2.89-1.6-5.79-2.39-8.68
				c-23.92,7.37-47.87,14.75-72.3,20.25c-11.7,2.63-23.47,4.64-35.33,6.38c-8.33,1.22-17.2,3.67-21.39,11.68
				c-1.47,2.82-0.05,5.48,2.69,6.61c9.06,3.74,20.48-1.89,29.24-4.43c10.88-3.15,21.75-6.31,32.63-9.46
				c5.55-1.61,3.19-10.3-2.39-8.68c-9.63,2.79-19.27,5.59-28.9,8.38c-4.66,1.35-9.32,2.7-13.98,4.05c-4.67,1.36-9.44,3.42-14.2,1.46
				c0.9,2.2,1.79,4.41,2.69,6.61c3.98-7.62,15.64-7.42,23.02-8.54c11.41-1.73,22.72-4.02,33.94-6.69
				c22.49-5.34,44.6-12.15,66.68-18.95c5.56-1.71,3.26-9.87-2.39-8.68c-19.79,4.16-39.57,8.31-59.36,12.47
				c-19.38,4.07-39.14,9.58-59.12,8.18c-5.12-0.36-6.04,7.57-1.2,8.84c1.83,0.48,3.65,0.96,5.48,1.44c-0.9-2.2-1.79-4.41-2.69-6.61
				c-3.2,4.94-6.39,9.88-9.59,14.83c2.36-0.3,4.71-0.61,7.07-0.91c-1.5-1.45-3-2.9-4.5-4.34c-3.11-3-8.94-0.03-7.52,4.38
				c0.93,2.87,2.25,5.14,4.39,7.29c1.85,1.85,5.89,1.8,7.07-0.91c1.62-3.74-0.21-8.16-4.81-8.23c-5.02-0.08-6.26,5.34-5.13,9.2
				c2.2-1.69,4.41-3.39,6.61-5.08c-3.08-1.65-5.78-1.15-8.73,0.59c2.2,1.69,4.41,3.39,6.61,5.08c0.84-3.4,0.49-6.03-1.15-9.12
				c-0.93-1.73-3.22-2.59-5.08-2.07c-3.63,1.03-6.12,2.96-8.23,6.05c-2.42,3.53,1.56,7.27,5.08,6.61c0.19,0.07,0.38,0.13,0.57,0.2
				c-0.69-1.69-1.38-3.39-2.07-5.08c0.18-0.16,0.36-0.32,0.54-0.47c1.16,2.74,2.31,5.48,3.47,8.22c5.82-3.75,2.59-10.89-3.48-11.67
				c-4.29-0.55-9.14,0.4-13.45,0.66c-5.2,0.32-10.4,0.63-15.6,0.95c-4.95,0.3-6.25,7.4-1.2,8.84c3.57,1.02,7.14,2.03,10.71,3.05
				c-0.36-2.74-0.72-5.48-1.07-8.22c-5.19,3.57-10.86,5.91-17.15,6.61c-5.69,0.63-5.88,8.59,0,9c13.36,0.93,26.62-3.01,37.22-11.19
				c3.75-2.89,1.86-9.75-3.47-8.22c-13.37,3.82-26.99,6.18-40.87,7.01c0.76,2.8,1.51,5.59,2.27,8.39c2.01-0.9,3.95-1.38,6.14-1.58
				c5.67-0.52,5.88-9.2,0-9c-9.43,0.33-18.87,0.66-28.3,0.98c0.4,2.95,0.8,5.89,1.2,8.84c9.11-2.05,18.24-2.77,27.56-2.3
				c0-3,0-6,0-9c-5.8,0.23-11.59,0.46-17.39,0.69c0.4,2.95,0.8,5.89,1.2,8.84c8.59-1.45,17.23-2.24,25.93-2.45
				c-0.4-2.95-0.8-5.89-1.2-8.84c-12.11,1.69-24.22,3.38-36.33,5.08c-5.01,0.7-3.83,9.13,1.2,8.84c3.01-0.17,5.9-0.08,8.87,0.47
				c0-2.89,0-5.79,0-8.68c-4.63,1.64-9.26,3.27-13.9,4.91c-5.49,1.94-3.3,9.71,2.39,8.68c6.84-1.24,13.6-2.32,20.41-0.38
				c0.4-2.95,0.8-5.89,1.2-8.84c-13.06,1.08-25.79,3.84-38.06,8.48c0.8,2.89,1.6,5.79,2.39,8.68c10.54-3.98,20.02-9.6,28.54-16.97
				c3.91-3.37-1.13-9.66-5.45-7.07c-2.78,1.66-5.55,3.32-8.33,4.98c-4.31,2.58-1.52,9.7,3.47,8.22c3.93-1.16,7.16-3.12,9.85-6.23
				c3.25-3.75-0.83-9.71-5.45-7.07c-3.99,2.28-7.63,5.01-10.97,8.16c-3.13,2.95,0.09,9.14,4.38,7.52c4.28-1.62,8.51-2.65,13.08-2.97
				c-1.06-2.56-2.12-5.12-3.18-7.68c-2.6,2.88-5.19,5.75-7.79,8.63c-3.98,4.41,1.89,9.87,6.36,6.36c4.05-3.17,6.69-7.42,8-12.38
				c0.69-2.6-1.35-5.97-4.34-5.7c-10.25,0.96-19.87,3.81-28.92,8.73c-5.15,2.8-0.62,10.22,4.54,7.77c4.13-1.96,8.25-3.92,12.38-5.87
				c-1.51-2.59-3.03-5.18-4.54-7.77c-2.16,1.52-4.24,2.51-6.78,3.17c1.16,2.74,2.31,5.48,3.47,8.22c2.93-1.43,5.95-1.84,9.15-1.24
				c-0.66-2.51-1.32-5.01-1.99-7.52c-0.63,0.33-1.26,0.66-1.9,0.99c0.76,2.8,1.51,5.59,2.27,8.39c1.37-0.62,2.74-1.24,4.1-1.86
				c4.86-2.2,1.26-9.22-3.47-8.22c-6.06,1.28-12.11,1.8-18.3,1.68c1.06,2.56,2.12,5.12,3.18,7.68c2.67-2.44,4.26-5.07,5.56-8.41
				c1.26-3.24-2.48-6.45-5.54-5.54c-6.18,1.86-10.41,6.05-12.61,12.08c-0.85,2.33,0.96,4.88,3.14,5.54
				c1.58,0.48,3.16,0.96,4.74,1.43c-0.66-2.51-1.32-5.01-1.99-7.52c-2.4,2.46-4.79,4.92-7.19,7.37c2.51,1.46,5.01,2.92,7.52,4.38
				c1.14-7.96,2.28-15.92,3.42-23.88c0.52-3.65-2.92-7.29-6.61-5.08c-3.1,1.86-4.47,4.37-4.7,7.94c-0.27,4.06,5.01,5.71,7.68,3.18
				c3.55-3.36,8.74-4.52,13.29-2.48c0.36-2.74,0.72-5.48,1.07-8.22c-2.89,0.87-5.79,1.73-8.68,2.6c0.8,2.89,1.6,5.79,2.39,8.68
				c16.58-6.34,33.45-11.8,50.6-16.36c4.91-1.31,3.9-8.84-1.2-8.84c-7.82,0-15.62,0.35-23.41,1.04c0,3,0,6,0,9
				c17.47-2.06,35.03-2.64,52.6-1.75c-0.4-2.95-0.8-5.89-1.2-8.84c-5.63,1.74-11.24,2.57-17.13,2.5c0.4,2.95,0.8,5.89,1.2,8.84
				c10.72-2.12,21.53-3.21,32.46-3.33c-0.4-2.95-0.8-5.89-1.2-8.84c-11.34,2.61-22.79,4.49-34.38,5.56c-5.67,0.52-5.86,9.29,0,9
				c4.28-0.21,8.56-0.43,12.84-0.64c0-3,0-6,0-9c-20.73,1.72-41.46,3.44-62.19,5.17c0.4,2.95,0.8,5.89,1.2,8.84
				c6.13-1.53,12.26-2.37,18.57-2.54c5.81-0.16,5.78-8.72,0-9c-17.04-0.82-34.08-0.52-51.08,0.88c-5.7,0.47-5.87,8.85,0,9
				c9.52,0.24,19.04,0.48,28.57,0.72c5.08,0.13,6.1-7.54,1.2-8.84c-6.83-1.81-14.73-3.43-20.96,0.95
				c-4.76,3.35-7.44,9.19-5.44,14.86c1.91,5.41,10.12,3.29,8.68-2.39c-0.8-3.14-1.59-6.28-2.39-9.42c-1.24-4.88-8.97-3.91-8.84,1.2
				c0.15,5.69-0.11,11.32-0.79,16.97c2.95-0.4,5.89-0.8,8.84-1.2c-1.04-3.9-1.66-7.75-1.85-11.79c-2.95,0.4-5.89,0.8-8.84,1.2
				c1.03,5.84,2.05,11.68,3.08,17.52c0.74,4.22,6.19,3.85,8.22,1.07c2.7-3.69,3.91-7.88,3.79-12.43c-0.12-4.5-6.01-6.07-8.39-2.27
				c-3.73,5.95-9.2,9.91-15.97,11.73c1.9,1.45,3.8,2.89,5.7,4.34c0.01-4.03,4.83-6.59,7.65-8.79c3.05-2.38,6.35-5.04,7.12-9.04
				c0.67-3.47-0.85-6.79-3.76-8.74c-2.86-1.92-7-2.04-9.38-4.57C531.88,573.63,525.52,580,529.48,584.22L529.48,584.22z"/>
		</g>
	</g>
	<g>
		<g>
			<path class="st4" d="M781.95,546.97c0.6-0.34,1.19-0.68,1.79-1.02c0.98-0.56,1.77-1.61,2.07-2.69c0.3-1.08,0.16-2.51-0.45-3.47
				c-1.33-2.07-3.97-2.86-6.16-1.61c-0.6,0.34-1.19,0.68-1.79,1.02c-0.98,0.56-1.77,1.61-2.07,2.69c-0.3,1.08-0.16,2.51,0.45,3.47
				C777.13,547.42,779.76,548.22,781.95,546.97L781.95,546.97z"/>
		</g>
	</g>
	<g>
		<g>
			<path class="st4" d="M820.28,535.39c1.93,0,1.93-3,0-3C818.35,532.39,818.34,535.39,820.28,535.39L820.28,535.39z"/>
		</g>
	</g>
	<g class="st5">
		<g class="st6">
			<path class="st4" d="M905.55,506.52c2.49,0.8,4.94,1.7,7.34,2.72c1.78,0.75,2.55-2.15,0.8-2.89c-2.41-1.02-4.85-1.92-7.34-2.72
				C904.5,503.04,903.71,505.94,905.55,506.52L905.55,506.52z"/>
		</g>
	</g>
	<g class="st5">
		<g class="st6">
			<path class="st4" d="M905.38,504.23c3.7,1.88,7.57,3.26,11.64,4.1c1.88,0.39,2.69-2.5,0.8-2.89c-3.82-0.79-7.45-2.03-10.92-3.8
				C905.18,500.77,903.66,503.36,905.38,504.23L905.38,504.23z"/>
		</g>
	</g>
	<g>
		<g>
			<path class="st4" d="M985.23,463.08c-0.4,0.67-0.81,1.34-1.21,2.01c-0.42,0.69-0.15,1.65,0.54,2.05
				c0.71,0.42,1.63,0.16,2.05-0.54c0.4-0.67,0.81-1.34,1.21-2.01c0.42-0.69,0.15-1.65-0.54-2.05
				C986.58,462.12,985.65,462.38,985.23,463.08L985.23,463.08z"/>
		</g>
	</g>
	<g>
		<g>
			<path class="st4" d="M985.51,462.57c-0.55,0.52-1.01,1.15-1.33,1.84c0.91,0.39,1.83,0.77,2.74,1.16
				c0.02-0.12,0.04-0.24,0.08-0.36c0.02-0.06,0.15-0.31,0.04-0.12c0.05-0.09,0.1-0.17,0.15-0.26c-0.13,0.19,0.14-0.13,0.15-0.15
				c0.58-0.57,0.57-1.55,0-2.12c-0.58-0.58-1.54-0.57-2.12,0c-0.61,0.59-1.06,1.37-1.2,2.21c-0.12,0.74,0.13,1.47,0.87,1.77
				c0.63,0.26,1.56,0.07,1.87-0.61c0.27-0.6,0.44-0.83,0.86-1.23c0.59-0.56,0.56-1.56,0-2.12
				C987.04,461.98,986.1,462.01,985.51,462.57L985.51,462.57z"/>
		</g>
	</g>
	<g>
		<g>
			<path class="st4" d="M987.38,467.22c1.93,0,1.93-3,0-3C985.45,464.22,985.45,467.22,987.38,467.22L987.38,467.22z"/>
		</g>
	</g>
	<g>
		<g>
			<path class="st4" d="M987,467.48c1.93,0,1.93-3,0-3C985.07,464.48,985.07,467.48,987,467.48L987,467.48z"/>
		</g>
	</g>
	<g>
		<g>
			<path class="st4" d="M985.85,465.31c1.93,0,1.93-3,0-3C983.92,462.31,983.92,465.31,985.85,465.31L985.85,465.31z"/>
		</g>
	</g>
	<g>
		<g>
			<path class="st4" d="M986.49,467.61c1.93,0,1.93-3,0-3C984.56,464.61,984.56,467.61,986.49,467.61L986.49,467.61z"/>
		</g>
	</g>
	<g>
		<g>
			<path class="st4" d="M986.11,467.61c1.93,0,1.93-3,0-3C984.18,464.61,984.17,467.61,986.11,467.61L986.11,467.61z"/>
		</g>
	</g>
	<g>
		<g>
			<path class="st4" d="M986.23,467.86c1.93,0,1.93-3,0-3C984.3,464.86,984.3,467.86,986.23,467.86L986.23,467.86z"/>
		</g>
	</g>
	<g>
		<g>
			<path class="st4" d="M985.72,467.86c1.93,0,1.93-3,0-3C983.79,464.86,983.79,467.86,985.72,467.86L985.72,467.86z"/>
		</g>
	</g>
	<g>
		<g>
			<path class="st4" d="M987,467.86c1.93,0,1.93-3,0-3C985.07,464.86,985.07,467.86,987,467.86L987,467.86z"/>
		</g>
	</g>
	<g>
		<g>
			<path class="st4" d="M984.57,467.74c1.45,0,1.45-2.25,0-2.25C983.13,465.49,983.12,467.74,984.57,467.74L984.57,467.74z"/>
		</g>
	</g>
	<g>
		<g>
			<path class="st4" d="M984.32,468c1.45,0,1.45-2.25,0-2.25C982.87,465.75,982.87,468,984.32,468L984.32,468z"/>
		</g>
	</g>
	<g>
		<g>
			<path class="st4" d="M985.02,467.87c1.45,0,1.45-2.25,0-2.25C983.57,465.62,983.57,467.87,985.02,467.87L985.02,467.87z"/>
		</g>
	</g>
	<g>
		<g>
			<path class="st4" d="M985.53,467.87c1.45,0,1.45-2.25,0-2.25C984.08,465.62,984.08,467.87,985.53,467.87L985.53,467.87z"/>
		</g>
	</g>
	<g>
		<g>
			<path class="st4" d="M985.53,467.87c1.45,0,1.45-2.25,0-2.25C984.08,465.62,984.08,467.87,985.53,467.87L985.53,467.87z"/>
		</g>
	</g>
	<g>
		<g>
			<path class="st4" d="M985.4,468c1.45,0,1.45-2.25,0-2.25C983.96,465.75,983.95,468,985.4,468L985.4,468z"/>
		</g>
	</g>
	<g>
		<g>
			<path class="st4" d="M985.09,467.93c1.45,0,1.45-2.25,0-2.25C983.64,465.68,983.63,467.93,985.09,467.93L985.09,467.93z"/>
		</g>
	</g>
	<g>
		<g>
			<path class="st4" d="M848.96,516.32c-29.27,16.03-60.1,28.88-92.09,38.37c-3.69,1.1-2.12,6.89,1.6,5.79
				c32.47-9.63,63.82-22.7,93.53-38.98C855.38,519.64,852.36,514.46,848.96,516.32L848.96,516.32z"/>
		</g>
	</g>
	<g>
		<g>
			<path class="st4" d="M910.01,495.61c-29.75,11.04-59.51,22.08-89.26,33.12c-3.59,1.33-2.04,7.13,1.6,5.79
				c29.75-11.04,59.51-22.08,89.26-33.12C915.2,500.06,913.64,494.26,910.01,495.61L910.01,495.61z"/>
		</g>
	</g>
	<g>
		<g>
			<path class="st4" d="M907.69,495.54c-13.81,8.95-28.93,15.33-44.27,21.16c-15.54,5.91-31.15,11.66-46.73,17.48
				c-32.05,11.98-63.72,25.07-97.95,29.25c-3.78,0.46-3.83,6.47,0,6c34.84-4.25,66.91-17.27,99.54-29.46
				c16.14-6.03,32.31-11.96,48.4-18.12c15.24-5.83,30.29-12.23,44.03-21.13C913.95,498.63,910.94,493.44,907.69,495.54
				L907.69,495.54z"/>
		</g>
	</g>
	<g>
		<g>
			<path class="st4" d="M962.97,478.18c62.28,26.46,126.24,48.82,191.56,66.49c64.67,17.49,130.54,30.39,197.02,38.65
				c37.42,4.65,75.03,7.76,112.7,9.39c7.72,0.33,7.71-11.67,0-12c-65.94-2.84-131.63-10.32-196.5-22.46
				c-65.25-12.21-129.64-29.02-192.58-50.15c-35.88-12.04-71.31-25.48-106.15-40.28c-3-1.28-6.4-0.88-8.21,2.15
				C959.32,472.48,959.99,476.92,962.97,478.18L962.97,478.18z"/>
		</g>
	</g>
	<g>
		<g>
			<path class="st4" d="M1462.61,584.59c-6.26,3.68-12.64,7.13-19.17,10.28c-4.33,2.09-13.47,4.19-10.88,10.86
				c1.95,5.02,9.03,9.76,13.11,13.01c5.36,4.27,11.04,8.01,17.07,11.26c5.1,2.74,9.65-5.02,4.54-7.77
				c-4.94-2.66-9.71-5.61-14.17-9.01c-2.14-1.63-4.19-3.37-6.18-5.17c-1.03-0.94-2.05-1.89-3.04-2.86
				c-0.35-0.34-2.76-3.13-2.73-2.03c-0.74,1.3-1.49,2.59-2.23,3.89c3.98-2.91,9.51-4.57,13.94-6.82c4.85-2.47,9.6-5.11,14.3-7.86
				C1472.14,589.43,1467.62,581.65,1462.61,584.59L1462.61,584.59z"/>
		</g>
	</g>
	<g>
		<g>
			<path class="st4" d="M1463.24,621.51c-90.22-3.49-177.94-28.58-261.78-60.77c-22.83-8.77-45.47-18.42-65.22-33.07
				c-4.66-3.45-9.15,4.36-4.54,7.77c17.48,12.96,37.28,22.05,57.41,30.09c21.23,8.47,42.76,16.25,64.44,23.48
				c43.19,14.4,87.32,26.23,132.28,33.58c25.62,4.19,51.47,6.93,77.42,7.93C1469.03,630.74,1469.02,621.73,1463.24,621.51
				L1463.24,621.51z"/>
		</g>
	</g>
	<g>
		<g>
			<path class="st4" d="M1441.16,587.71c-2.41,2.52-6.53,2.65-9.49,4.38c-3.32,1.94-5.16,5.41-4.44,9.24
				c0.79,4.21,4.46,6.95,7.67,9.39c2.95,2.24,8.11,4.85,8.1,9.06c1.9-1.45,3.8-2.89,5.7-4.34c-7.19-1.86-13.17-5.92-17.22-12.2
				c-2.41-3.74-8.27-2.28-8.39,2.27c-0.12,4.71,1.16,9.01,4,12.77c2.05,2.72,7.46,3.16,8.22-1.07c1.09-6.04,2.19-12.07,3.28-18.11
				c-2.95-0.4-5.89-0.8-8.84-1.2c-0.2,4.21-0.86,8.18-1.99,12.23c2.95,0.4,5.89,0.8,8.84,1.2c-0.72-5.84-1.01-11.67-0.85-17.55
				c0.14-5.08-7.55-6.1-8.84-1.2c-0.85,3.25-1.7,6.49-2.55,9.74c-1.49,5.7,6.68,7.74,8.68,2.39c2.19-5.86-0.84-12.08-5.91-15.37
				c-6.63-4.3-14.74-2.63-21.89-0.79c-4.88,1.26-3.92,8.96,1.2,8.84c10.16-0.25,20.32-0.49,30.48-0.74c5.86-0.14,5.72-8.54,0-9
				c-18.14-1.46-36.32-1.77-54.5-0.91c-5.77,0.27-5.82,8.84,0,9c6.76,0.18,13.33,1.05,19.9,2.64c0.4-2.95,0.8-5.89,1.2-8.84
				c-22.12-1.78-44.23-3.56-66.35-5.34c0,3,0,6,0,9c4.56,0.22,9.13,0.44,13.7,0.66c5.85,0.28,5.69-8.49,0-9
				c-12.38-1.11-24.63-3.04-36.76-5.75c-0.4,2.95-0.8,5.89-1.2,8.84c11.68,0.12,23.24,1.24,34.72,3.45c0.4-2.95,0.8-5.89,1.2-8.84
				c-6.31,0.08-12.31-0.78-18.35-2.59c-0.4,2.95-0.8,5.89-1.2,8.84c18.74-0.93,37.48-0.32,56.12,1.81c0-3,0-6,0-9
				c-8.31-0.72-16.63-1.08-24.98-1.08c-5.03,0-6.17,7.56-1.2,8.84c18.28,4.71,36.29,10.35,53.99,16.92c0.8-2.89,1.6-5.79,2.39-8.68
				c-3.09-0.9-6.18-1.79-9.26-2.69c0.36,2.74,0.72,5.48,1.07,8.22c4.92-2.14,10.65-0.99,14.54,2.59c2.67,2.45,7.96,0.92,7.68-3.18
				c-0.25-3.65-1.67-6.21-4.87-8.07c-3.71-2.15-7.16,1.39-6.61,5.08c1.22,8.23,2.43,16.46,3.65,24.68c2.51-1.46,5.01-2.92,7.52-4.38
				c-2.56-2.54-5.11-5.08-7.67-7.62c-0.66,2.51-1.32,5.01-1.99,7.52c1.69-0.49,3.37-0.99,5.06-1.48c2.18-0.64,4.01-3.22,3.14-5.54
				c-2.35-6.24-6.79-10.5-13.24-12.38c-3.05-0.89-6.81,2.27-5.54,5.54c1.33,3.41,3.08,6.21,5.86,8.63c1.06-2.56,2.12-5.12,3.18-7.68
				c-6.63,0.13-13.11-0.41-19.61-1.74c-4.66-0.95-8.42,6.06-3.47,8.22c1.46,0.64,2.92,1.28,4.38,1.92c0.76-2.8,1.51-5.59,2.27-8.39
				c-0.75-0.36-1.49-0.71-2.24-1.07c-0.66,2.51-1.32,5.01-1.99,7.52c3.46-0.65,6.81-0.23,10,1.29c1.16-2.74,2.31-5.48,3.47-8.22
				c-2.73-0.68-4.99-1.72-7.31-3.29c-1.51,2.59-3.03,5.18-4.54,7.77c4.4,2.02,8.81,4.05,13.21,6.07c5.17,2.38,9.74-5.02,4.54-7.77
				c-9.63-5.09-19.86-8.03-30.7-9.01c-2.97-0.27-5.05,3.08-4.34,5.7c1.55,5.68,4.72,9.91,9.37,13.43c4.21,3.19,8.79-3.49,5.45-7.07
				c-2.77-2.97-5.54-5.94-8.31-8.92c-1.06,2.56-2.12,5.12-3.18,7.68c4.88,0.33,9.46,1.39,14.04,3.08c4.24,1.56,7.59-4.58,4.38-7.52
				c-3.57-3.26-7.42-6.07-11.64-8.41c-4.58-2.54-8.79,3.27-5.45,7.07c2.81,3.2,6.29,5.26,10.38,6.4c4.9,1.36,7.91-5.65,3.47-8.22
				c-2.96-1.72-5.93-3.43-8.89-5.15c-4.28-2.48-9.48,3.7-5.45,7.07c9.1,7.62,19.17,13.43,30.32,17.5c5.45,1.99,7.79-6.7,2.39-8.68
				c-13.08-4.79-26.64-7.65-40.53-8.76c0.4,2.95,0.8,5.89,1.2,8.84c7.29-2.04,14.61-0.9,21.94,0.39c5.66,1,7.94-6.78,2.39-8.68
				c-4.94-1.69-9.88-3.38-14.83-5.07c0,2.89,0,5.79,0,8.68c3.19-0.57,6.31-0.67,9.54-0.49c4.97,0.27,6.26-8.15,1.2-8.84
				c-12.92-1.75-25.84-3.5-38.76-5.25c-0.4,2.95-0.8,5.89-1.2,8.84c9.31,0.22,18.55,1.03,27.75,2.54c0.4-2.95,0.8-5.89,1.2-8.84
				c-6.18-0.24-12.37-0.47-18.55-0.71c0,3,0,6,0,9c9.96-0.49,19.73,0.25,29.48,2.39c0.4-2.95,0.8-5.89,1.2-8.84
				c-10.07-0.34-20.13-0.68-30.2-1.02c-5.85-0.2-5.7,8.53,0,9c2.34,0.19,4.55,0.71,6.7,1.66c0.76-2.8,1.51-5.59,2.27-8.39
				c-14.82-0.85-29.38-3.29-43.68-7.25c-5.24-1.45-7.34,5.32-3.47,8.22c11.35,8.5,25.43,12.51,39.56,11.55c5.86-0.4,5.71-8.39,0-9
				c-6.73-0.72-12.84-3.11-18.45-6.85c-0.36,2.74-0.72,5.48-1.07,8.22c3.81-1.05,7.61-2.1,11.42-3.15c5.03-1.39,3.78-8.55-1.2-8.84
				c-9.92-0.59-20.44-2.27-30.36-1.75c-6.39,0.34-10.49,7.94-4.2,11.86c1.16-2.74,2.31-5.48,3.47-8.22
				c0.12,0.13,0.24,0.26,0.37,0.38c-0.69,1.69-1.38,3.39-2.07,5.08c0.28-0.07,0.56-0.15,0.84-0.22c3.45,0.63,7.57-3.1,5.08-6.61
				c-2.25-3.17-4.82-5.15-8.6-6.19c-1.88-0.52-4.13,0.33-5.08,2.07c-1.72,3.13-2.09,5.84-1.2,9.31c2.2-1.69,4.41-3.39,6.61-5.08
				c-3.08-1.76-5.8-2.27-9.01-0.61c2.2,1.69,4.41,3.39,6.61,5.08c2.17-7.21-5.35-12.75-10.33-6.18c-1.01,1.34-0.61,3.17,0,4.54
				c0.09,0.2,0.18,0.4,0.27,0.6c1.23,2.75,5.16,2.71,7.07,0.91c2.27-2.15,3.67-4.5,4.61-7.47c1.4-4.45-4.37-7.32-7.52-4.38
				c-1.6,1.5-3.2,2.99-4.8,4.49c2.36,0.3,4.71,0.61,7.07,0.91c-3.41-5.11-6.82-10.22-10.23-15.33c-0.9,2.2-1.79,4.41-2.69,6.61
				c1.95-0.5,3.9-0.99,5.84-1.49c4.81-1.23,3.95-9.19-1.2-8.84c-21.54,1.47-42.88-4.33-63.82-8.6c-20.89-4.25-41.78-8.5-62.66-12.76
				c-5.64-1.15-7.99,7.01-2.39,8.68c23.55,7.03,47.13,14.07,71.1,19.58c11.82,2.72,23.72,5.06,35.72,6.84
				c7.9,1.17,20.94,0.85,25.29,8.98c0.9-2.2,1.79-4.41,2.69-6.61c-4.47,1.84-8.81,0.32-13.25-0.93c-5.42-1.52-10.84-3.05-16.26-4.57
				c-10.52-2.96-21.04-5.91-31.56-8.87c-5.59-1.57-7.97,7.11-2.39,8.68c11.8,3.31,23.59,6.63,35.39,9.94
				c9.11,2.56,21.05,8.28,30.47,4.42c2.72-1.12,4.19-3.81,2.69-6.61c-4.48-8.37-13.98-10.77-22.71-12.01
				c-12.78-1.81-25.46-3.92-38.07-6.69c-25.89-5.67-51.31-13.26-76.7-20.84c-0.8,2.89-1.59,5.79-2.39,8.68
				c21.53,4.38,43.06,8.77,64.59,13.15c21.08,4.29,42.6,10.01,64.28,8.52c-0.4-2.95-0.8-5.89-1.2-8.84c-1.95,0.5-3.9,0.99-5.84,1.49
				c-2.69,0.69-4.3,4.2-2.69,6.61c3.41,5.11,6.82,10.22,10.23,15.33c1.64,2.45,4.86,2.98,7.07,0.91c1.6-1.5,3.2-2.99,4.8-4.49
				c-2.51-1.46-5.01-2.92-7.52-4.38c-0.49,1.54-1.13,2.4-2.29,3.5c2.36,0.3,4.71,0.61,7.07,0.91c-0.09-0.2-0.18-0.4-0.27-0.6
				c0,1.51,0,3.03,0,4.54c0.15-0.2,0.3-0.4,0.45-0.6c-0.9,0.69-1.79,1.38-2.69,2.07c-0.27-0.02-0.55-0.04-0.82-0.05
				c-0.9-0.69-1.79-1.38-2.69-2.07c-0.13-0.04-0.25-0.07-0.38-0.11c-1.18,3.94,3.26,6.82,6.61,5.08c-0.02,0.2-0.05,0.41-0.07,0.61
				c3.44,1.97,7.59-1.28,6.61-5.08c0.1-0.79,0.2-1.58,0.29-2.37c-1.69,0.69-3.39,1.38-5.08,2.07c1.38,0.19,2.45,0.87,3.23,2.05
				c1.69-2.2,3.39-4.41,5.08-6.61c-2.96-0.54-5.09-0.31-7.78,1.13c-1.8,0.96-2.52,3.19-2.07,5.08c0.73,3.1,2.84,5.14,5.92,5.9
				c4.97,1.23,7.83-5.5,3.47-8.22c-0.23-0.14-0.46-0.28-0.68-0.43c0.69,0.9,1.38,1.79,2.07,2.69c-0.58,0.88-1.15,1.76-1.73,2.64
				c0.41,0.01,0.82,0.02,1.23,0.03c0.88,0.44,2.89,0.17,3.88,0.23c2.91,0.17,5.82,0.34,8.74,0.52c5.5,0.32,11,0.65,16.5,0.97
				c-0.4-2.95-0.8-5.89-1.2-8.84c-3.81,1.05-7.61,2.1-11.42,3.15c-3.89,1.08-4.22,6.13-1.07,8.22c7.01,4.67,14.65,7.19,22.99,8.08
				c0-3,0-6,0-9c-12.75,0.87-24.78-2.66-35.02-10.32c-1.16,2.74-2.31,5.48-3.47,8.22c15.06,4.17,30.48,6.67,46.08,7.57
				c4.27,0.24,6.39-6.57,2.27-8.39c-3.68-1.62-7.23-2.56-11.24-2.89c0,3,0,6,0,9c10.07,0.34,20.13,0.68,30.2,1.02
				c5.01,0.17,6.2-7.75,1.2-8.84c-10.5-2.3-21.14-3.24-31.87-2.71c-5.77,0.29-5.81,8.78,0,9c6.18,0.24,12.37,0.47,18.55,0.71
				c4.96,0.19,6.27-8.01,1.2-8.84c-9.99-1.64-20.02-2.62-30.14-2.86c-4.93-0.12-6.31,8.15-1.2,8.84c12.92,1.75,25.84,3.5,38.76,5.25
				c0.4-2.95,0.8-5.89,1.2-8.84c-4.06-0.22-7.94,0.1-11.93,0.81c-4.71,0.84-3.83,7.37,0,8.68c4.94,1.69,9.88,3.38,14.83,5.07
				c0.8-2.89,1.6-5.79,2.39-8.68c-8.93-1.57-17.83-2.87-26.72-0.39c-5.09,1.42-3.72,8.45,1.2,8.84c13.08,1.05,25.82,3.93,38.13,8.44
				c0.8-2.89,1.59-5.79,2.39-8.68c-9.61-3.51-18.51-8.62-26.35-15.19c-1.82,2.36-3.64,4.71-5.45,7.07c2.96,1.72,5.93,3.43,8.89,5.15
				c1.16-2.74,2.31-5.48,3.47-8.22c-2.72-0.75-4.57-1.99-6.41-4.08c-1.82,2.36-3.64,4.71-5.45,7.07c3.59,1.99,6.79,4.23,9.82,7
				c1.46-2.51,2.92-5.01,4.38-7.52c-5.33-1.96-10.77-3.02-16.43-3.4c-4.08-0.27-5.68,5.01-3.18,7.68c2.77,2.97,5.54,5.94,8.31,8.92
				c1.82-2.36,3.64-4.71,5.45-7.07c-2.71-2.06-4.34-4.8-5.23-8.05c-1.45,1.9-2.89,3.8-4.34,5.7c9.21,0.83,17.99,3.46,26.16,7.78
				c1.51-2.59,3.03-5.18,4.54-7.77c-4.4-2.02-8.81-4.05-13.21-6.07c-5.23-2.41-9.39,4.47-4.54,7.77c2.93,1.99,6.02,3.34,9.46,4.2
				c4.75,1.18,8.23-5.95,3.47-8.22c-5.51-2.63-10.93-3.33-16.93-2.2c-3.36,0.63-4.29,5.31-1.99,7.52c2.58,2.48,5.05,3.45,8.6,3.7
				c4.29,0.3,6.37-6.59,2.27-8.39c-1.46-0.64-2.92-1.28-4.38-1.92c-1.16,2.74-2.31,5.48-3.47,8.22c7.27,1.49,14.58,2.21,22,2.06
				c3.66-0.07,6.24-5.02,3.18-7.68c-1.56-1.35-2.78-2.7-3.54-4.66c-1.85,1.85-3.69,3.69-5.54,5.54c3.21,0.94,5.74,2.88,6.95,6.1
				c1.05-1.85,2.1-3.69,3.14-5.54c-1.69,0.49-3.37,0.99-5.06,1.48c-3.23,0.95-4.42,5.1-1.99,7.52c2.56,2.54,5.11,5.08,7.67,7.62
				c3.46,3.44,8.14-0.2,7.52-4.38c-1.22-8.23-2.43-16.46-3.65-24.68c-2.2,1.69-4.41,3.39-6.61,5.08c0.14,0.1,0.27,0.2,0.41,0.3
				c2.56-1.06,5.12-2.12,7.68-3.18c-7.15-6.55-16.66-7.81-25.45-3.99c-3.73,1.62-2.32,7.24,1.08,8.22c3.09,0.9,6.18,1.79,9.26,2.69
				c5.65,1.64,7.74-6.7,2.39-8.68c-17.7-6.56-35.71-12.2-53.99-16.92c-0.4,2.95-0.8,5.89-1.2,8.84c8.34,0,16.67,0.36,24.98,1.08
				c5.82,0.5,5.65-8.35,0-9c-18.64-2.13-37.38-2.73-56.12-1.81c-5.02,0.25-6.17,7.34-1.2,8.84c6.76,2.03,13.68,3,20.75,2.91
				c4.9-0.06,6.33-7.85,1.2-8.84c-12.25-2.35-24.63-3.64-37.11-3.77c-4.99-0.05-6.23,7.71-1.2,8.84
				c12.91,2.89,25.97,4.89,39.15,6.07c0-3,0-6,0-9c-4.57-0.22-9.13-0.44-13.7-0.66c-5.83-0.28-5.71,8.54,0,9
				c22.12,1.78,44.23,3.56,66.35,5.34c5.08,0.41,6.08-7.66,1.2-8.84c-7.33-1.77-14.75-2.75-22.29-2.96c0,3,0,6,0,9
				c18.18-0.85,36.36-0.55,54.5,0.91c0-3,0-6,0-9c-10.16,0.25-20.32,0.49-30.48,0.74c0.4,2.95,0.8,5.89,1.2,8.84
				c3.91-1.01,20.1-3.93,16.72,5.08c2.89,0.8,5.79,1.6,8.68,2.39c0.85-3.25,1.7-6.49,2.55-9.74c-2.95-0.4-5.89-0.8-8.84-1.2
				c-0.16,5.88,0.12,11.71,0.85,17.55c0.59,4.73,7.38,6.48,8.84,1.2c1.33-4.79,2.08-9.66,2.31-14.62c0.23-4.99-7.93-6.24-8.84-1.2
				c-1.09,6.04-2.19,12.07-3.28,18.11c2.74-0.36,5.48-0.72,8.22-1.08c-1.95-2.59-2.86-4.98-2.77-8.23c-2.8,0.76-5.59,1.51-8.39,2.27
				c5.28,8.2,13.14,13.89,22.59,16.33c2.83,0.73,5.69-1.38,5.7-4.34c0.02-7.71-5.94-11.85-11.52-16.06
				c-0.81-0.61-3.78-2.33-4.04-3.31c-0.3-1.12-0.84,0.16,0.53-0.95c0.47-0.38,1.48-0.53,2.05-0.73c3.14-1.1,6.16-2.22,8.51-4.67
				C1451.53,589.89,1445.17,583.52,1441.16,587.71L1441.16,587.71z"/>
		</g>
	</g>
	<g>
		<g>
			<path class="st4" d="M1183.06,547.77c-0.64-0.35-1.27-0.7-1.91-1.06c-1.04-0.57-2.31-0.77-3.47-0.45
				c-1.04,0.29-2.18,1.09-2.69,2.07c-1.12,2.12-0.59,4.94,1.61,6.16c0.64,0.35,1.27,0.7,1.91,1.06c1.04,0.57,2.31,0.77,3.47,0.45
				c1.04-0.29,2.17-1.09,2.69-2.07C1185.8,551.81,1185.26,548.99,1183.06,547.77L1183.06,547.77z"/>
		</g>
	</g>
	<g>
		<g>
			<path class="st4" d="M1137.48,543.65c1.93,0,1.93-3,0-3C1135.55,540.65,1135.55,543.65,1137.48,543.65L1137.48,543.65z"/>
		</g>
	</g>
	<g>
		<g>
			<path class="st4" d="M1103.74,529.25c31.75,16.86,65.18,30.35,99.74,40.28c3.72,1.07,5.31-4.72,1.59-5.79
				c-34.07-9.79-66.99-23.05-98.3-39.68C1103.36,522.26,1100.33,527.44,1103.74,529.25L1103.74,529.25z"/>
		</g>
	</g>
	<g>
		<g>
			<path class="st4" d="M1040.09,508.46c31.75,11.41,63.49,22.83,95.24,34.24c3.64,1.31,5.21-4.49,1.6-5.79
				c-31.75-11.41-63.49-22.83-95.24-34.24C1038.05,501.37,1036.48,507.16,1040.09,508.46L1040.09,508.46z"/>
		</g>
	</g>
	<g>
		<g>
			<path class="st4" d="M1041.09,507.78c14.36,9.02,30.01,15.53,45.86,21.44c17.39,6.48,34.89,12.67,52.34,18.99
				c34.95,12.66,69.34,26.2,106.52,30.59c3.83,0.45,3.79-5.55,0-6c-36.57-4.31-70.55-17.93-104.92-30.37
				c-16.89-6.11-33.81-12.14-50.66-18.37c-15.95-5.9-31.67-12.39-46.11-21.46C1040.84,500.54,1037.82,505.73,1041.09,507.78
				L1041.09,507.78z"/>
		</g>
	</g>
	<g>
		<g>
			<path class="st4" d="M961.16,486.14c2.7,2.69,6.29,1.82,9.65,2.71c1.87,0.5,2.66-2.4,0.8-2.89c-2.61-0.69-6.27,0.1-8.32-1.94
				C961.91,482.66,959.79,484.78,961.16,486.14L961.16,486.14z"/>
		</g>
	</g>
	<g>
		<g>
			<path class="st4" d="M959.53,486.08c2.29,0.53,4.59,1.05,6.88,1.58c1.88,0.43,2.68-2.46,0.8-2.89c-2.29-0.53-4.59-1.05-6.88-1.58
				C958.45,482.76,957.65,485.65,959.53,486.08L959.53,486.08z"/>
		</g>
	</g>
	<g>
		<g>
			<path class="st4" d="M964.79,486.62c1.7,0.1,3.4,0.2,5.1,0.3c1.93,0.11,1.92-2.89,0-3c-1.7-0.1-3.4-0.2-5.1-0.3
				C962.86,483.51,962.87,486.51,964.79,486.62L964.79,486.62z"/>
		</g>
	</g>
	<g>
		<g>
			<path class="st4" d="M961.86,485.93c3.84,0.79,7.7,1.07,11.61,0.79c1.91-0.13,1.93-3.14,0-3c-3.65,0.26-7.23,0.05-10.82-0.69
				C960.78,482.66,959.97,485.55,961.86,485.93L961.86,485.93z"/>
		</g>
	</g>
	<g>
		<g>
			<path class="st4" d="M959.43,485.89c1.93,0,1.93-3,0-3C957.5,482.89,957.49,485.89,959.43,485.89L959.43,485.89z"/>
		</g>
	</g>
	<g>
		<g>
			<path class="st4" d="M960.54,486.09c1.93,0,1.93-3,0-3C958.61,483.09,958.61,486.09,960.54,486.09L960.54,486.09z"/>
		</g>
	</g>
	<g>
		<g>
			<path class="st4" d="M960.48,485.96c1.93,0,1.93-3,0-3C958.55,482.96,958.55,485.96,960.48,485.96L960.48,485.96z"/>
		</g>
	</g>
	<g>
		<g>
			<path class="st4" d="M961.18,486.05c1.93,0,1.93-3,0-3C959.25,483.05,959.25,486.05,961.18,486.05L961.18,486.05z"/>
		</g>
	</g>
	<g>
		<g>
			<path class="st4" d="M960.35,485.86c1.93,0,1.93-3,0-3C958.42,482.86,958.42,485.86,960.35,485.86L960.35,485.86z"/>
		</g>
	</g>
	<g>
		<g>
			<path class="st4" d="M974.87,486.69c1.93,0,1.93-3,0-3C972.94,483.69,972.94,486.69,974.87,486.69L974.87,486.69z"/>
		</g>
	</g>
	<g>
		<g>
			<path class="st4" d="M974.46,486.66c1.93,0,1.93-3,0-3C972.53,483.66,972.52,486.66,974.46,486.66L974.46,486.66z"/>
		</g>
	</g>
	<g>
		<g>
			<path class="st4" d="M975.16,486.66c1.93,0,1.93-3,0-3C973.23,483.66,973.23,486.66,975.16,486.66L975.16,486.66z"/>
		</g>
	</g>
	<g>
		<g>
			<path class="st4" d="M961.12,485.96c1.93,0,1.93-3,0-3C959.19,482.96,959.18,485.96,961.12,485.96L961.12,485.96z"/>
		</g>
	</g>
	<g>
		<g>
			<path class="st4" d="M961.69,486.02c1.93,0,1.93-3,0-3C959.76,483.02,959.76,486.02,961.69,486.02L961.69,486.02z"/>
		</g>
	</g>
	<g>
		<g>
			<path class="st4" d="M1014.55,499.26c10.08,4.22,20.15,8.45,30.23,12.67c9.52,3.98,18.98,7.64,29.29,8.93
				c3.82,0.48,3.79-5.53,0-6c-10.34-1.29-19.95-5.47-29.47-9.46c-9.48-3.97-18.97-7.95-28.45-11.92
				C1012.59,491.98,1011.03,497.78,1014.55,499.26L1014.55,499.26z"/>
		</g>
	</g>
	<g class="st5">
		<g class="st6">
			<path class="st4" d="M901.67,506.11c5.45,1.19,10.94,2.1,16.47,2.78c1.91,0.23,1.89-2.77,0-3c-5.27-0.64-10.49-1.54-15.67-2.67
				C900.58,502.81,899.78,505.7,901.67,506.11L901.67,506.11z"/>
		</g>
	</g>
	<g class="st5">
		<g class="st6">
			<path class="st4" d="M905.7,508.79c3.43,1.62,7.06,2.23,10.82,2.36c1.93,0.07,1.93-2.93,0-3c-3.21-0.11-6.38-0.56-9.31-1.95
				C905.47,505.38,903.95,507.97,905.7,508.79L905.7,508.79z"/>
		</g>
	</g>
	<g>
		<path class="st7" d="M958.88,484.59c4.71,0.64,9.34,1.72,13.98,2.77c0.62,0.14,1.25,0.28,1.88,0.2s1.26-0.43,1.5-1.02
			c0.24-0.59-0.08-1.39-0.7-1.51c-0.17-0.03-0.35-0.02-0.53,0c-5.02,0.49-10.12,0.17-15.05-0.93"/>
		<g>
			<path class="st4" d="M958.48,486.04c4.72,0.68,9.29,1.93,13.98,2.77c1.95,0.35,4.67,0.39,5.24-2.07c0.46-1.98-0.99-3.01-2.7-3.21
				c-2-0.22-4.26,0.27-6.3,0.19c-2.82-0.1-5.59-0.49-8.35-1.07c-1.88-0.4-2.69,2.49-0.8,2.89c2.19,0.46,4.4,0.83,6.63,1.02
				c2.23,0.2,6.11,0.84,8.19,0.02c1.23-0.02,0.86-0.24-1.12-0.67c-0.63-0.14-1.26-0.29-1.9-0.43c-1.26-0.29-2.53-0.57-3.8-0.84
				c-2.75-0.59-5.5-1.1-8.28-1.5C957.39,482.87,956.58,485.76,958.48,486.04L958.48,486.04z"/>
		</g>
	</g>
	<g>
		<g>
			<path class="st4" d="M959.36,485.83c1.93,0,1.93-3,0-3C957.43,482.83,957.43,485.83,959.36,485.83L959.36,485.83z"/>
		</g>
	</g>
	<g>
		<g>
			<path class="st4" d="M985.88,463.46c0,0.55,0,1.11,0,1.66c0,0.78,0.69,1.54,1.5,1.5c0.81-0.04,1.5-0.66,1.5-1.5
				c0-0.55,0-1.11,0-1.66c0-0.78-0.69-1.54-1.5-1.5C986.57,461.99,985.88,462.62,985.88,463.46L985.88,463.46z"/>
		</g>
	</g>
	<g>
		<g>
			<path class="st4" d="M985.62,462.19c-0.37,1.06-0.48,2.22,0.11,3.23c0.59,1,1.73,1.45,2.85,1.49c-0.13-0.98-0.27-1.96-0.4-2.95
				c-0.22,0.07-0.43,0.15-0.65,0.22c-0.05,0.02-0.55,0.2-0.38,0.18c0.35,0.15,0.71,0.29,1.06,0.44c0.12,0.11-0.02-0.07-0.05-0.2
				c-0.06-0.24-0.02-0.53-0.02-0.77c0.02-0.69,0.01-1.27-0.52-1.81c-0.38-0.38-0.94-0.52-1.46-0.39c-0.54,0.14-0.91,0.49-1.15,0.99
				c-0.35,0.73-0.2,1.62,0.54,2.05c0.65,0.38,1.7,0.2,2.05-0.54c-0.03,0.01-0.05,0.02-0.08,0.03c-0.22,0.13-0.44,0.26-0.66,0.39
				c0.03-0.01,0.06-0.02,0.1-0.03c-0.49-0.13-0.97-0.26-1.46-0.39c0.03,0.03,0.06,0.06,0.09,0.09c-0.15-0.35-0.29-0.71-0.44-1.06
				c0.06,0.54-0.02,1.09,0.04,1.64c0.07,0.59,0.22,1.14,0.54,1.65c0.82,1.32,2.08,0.79,3.26,0.38c1.58-0.54,1.34-2.88-0.4-2.95
				c-0.13,0-0.27,0-0.3-0.1c-0.05-0.17,0.17-0.64,0.23-0.83c0.26-0.77-0.3-1.64-1.05-1.85
				C986.64,460.91,985.89,461.42,985.62,462.19L985.62,462.19z"/>
		</g>
	</g>
	<g>
		<g>
			<path class="st4" d="M987.89,466.81c-0.68,0.15-1.36,0.19-2.05,0.15c-0.48-0.03-0.48,0.72,0,0.75c0.76,0.05,1.51-0.01,2.25-0.18
				C988.56,467.43,988.36,466.71,987.89,466.81L987.89,466.81z"/>
		</g>
	</g>
	<g>
		<g>
			<path class="st4" d="M987.44,467.03c-0.35,0.18-1.03,0.1-1.43,0.13c-0.46,0.04-0.93,0.07-1.39,0.11c-0.48,0.04-0.48,0.79,0,0.75
				c0.62-0.05,1.24-0.1,1.86-0.14c0.43-0.03,0.95,0.01,1.34-0.19C988.25,467.46,987.87,466.81,987.44,467.03L987.44,467.03z"/>
		</g>
	</g>
	<g>
		<g>
			<path class="st4" d="M984.91,462.55c-0.63,0.75-0.87,1.85-1.14,2.77c-0.07,0.26,0.13,0.45,0.36,0.47c0,0,0,0,0.01,0
				c0.15,0.02,0.34-0.13,0.36-0.28c0-0.01,0-0.01,0-0.02c0.07-0.47-0.65-0.68-0.72-0.2c0,0.01,0,0.01,0,0.02
				c0.12-0.09,0.24-0.18,0.36-0.28c0,0,0,0-0.01,0c0.12,0.16,0.24,0.32,0.36,0.47c0.22-0.77,0.42-1.82,0.95-2.44
				C985.75,462.71,985.22,462.18,984.91,462.55L984.91,462.55z"/>
		</g>
	</g>
	<g>
		<g>
			<path class="st4" d="M984.61,462.8c-0.17,0.43-0.33,0.86-0.5,1.29c-0.17,0.45,0.55,0.65,0.72,0.2c0.17-0.43,0.33-0.86,0.5-1.29
				C985.51,462.55,984.78,462.35,984.61,462.8L984.61,462.8z"/>
		</g>
	</g>
	<g>
		<g>
			<path class="st4" d="M984.5,464.29c-0.01,0.58,0.03,1.15,0.13,1.72c0.07,0.43,0.73,0.31,0.74-0.1c0-0.29,0.01-0.59,0.01-0.88
				c-0.25,0-0.5,0-0.75,0c0.02,0.61,0.12,1.19,0.34,1.76c0.17,0.45,0.82,0.28,0.72-0.2c-0.06-0.31-0.13-0.61-0.19-0.92
				c-0.23,0.1-0.46,0.19-0.69,0.29c0.23,0.45,0.46,0.91,0.69,1.36c0.17-0.17,0.34-0.34,0.51-0.51c-0.52-0.39-0.81-0.93-0.9-1.56
				c-0.06-0.38-0.63-0.33-0.72,0c-0.27,1,0.09,1.96,0.97,2.51c0.41,0.26,0.78-0.39,0.38-0.65c-0.59-0.38-0.81-0.99-0.62-1.67
				c-0.24,0-0.48,0-0.72,0c0.12,0.84,0.57,1.51,1.24,2.01c0.33,0.24,0.66-0.21,0.51-0.51c-0.23-0.45-0.46-0.91-0.69-1.36
				c-0.2-0.4-0.77-0.11-0.69,0.29c0.06,0.31,0.13,0.61,0.19,0.92c0.24-0.07,0.48-0.13,0.72-0.2c-0.19-0.51-0.3-1.01-0.31-1.56
				c-0.01-0.48-0.74-0.48-0.75,0c0,0.29-0.01,0.59-0.01,0.88c0.25-0.03,0.49-0.07,0.74-0.1c-0.08-0.51-0.11-1.01-0.1-1.52
				C985.26,463.8,984.51,463.8,984.5,464.29L984.5,464.29z"/>
		</g>
	</g>
	<g>
		<g>
			<path class="st4" d="M984.16,465.28c-0.19,0.21-0.35,0.42-0.5,0.66c-0.25,0.41,0.39,0.79,0.65,0.38
				c0.11-0.18,0.24-0.35,0.38-0.51C985.01,465.45,984.48,464.92,984.16,465.28L984.16,465.28z"/>
		</g>
	</g>
	<g>
		<g>
			<path class="st4" d="M984.21,464.4c-0.27,0.46-0.51,0.92-0.65,1.43c-0.13,0.47,0.6,0.67,0.72,0.2c0.12-0.45,0.34-0.85,0.57-1.25
				C985.1,464.36,984.45,463.98,984.21,464.4L984.21,464.4z"/>
		</g>
	</g>
	<g>
		<g>
			<path class="st4" d="M983.65,466.29c0.11,0.47,0.39,0.86,0.64,1.26c0.16,0.26,0.62,0.24,0.69-0.09c0-0.02,0.01-0.04,0.01-0.06
				c0.09-0.47-0.63-0.67-0.72-0.2c0,0.02-0.01,0.04-0.01,0.06c0.23-0.03,0.46-0.06,0.69-0.09c-0.21-0.34-0.47-0.69-0.56-1.08
				C984.27,465.62,983.55,465.82,983.65,466.29L983.65,466.29z"/>
		</g>
	</g>
	<g>
		<g>
			<path class="st4" d="M983.54,466.04c-0.12,0.41-0.29,0.77-0.52,1.13c-0.26,0.41,0.39,0.79,0.65,0.38
				c0.26-0.41,0.45-0.85,0.59-1.31C984.4,465.78,983.68,465.58,983.54,466.04L983.54,466.04z"/>
		</g>
	</g>
	<g>
		<g>
			<path class="st4" d="M985.12,467.29c-0.25,0-0.49,0-0.74,0c-0.14,0-0.44,0.06-0.55,0c0.02,0.13,0.04,0.14,0.07,0.03
				c0.03-0.08,0.08-0.15,0.13-0.23c0.12-0.21,0.25-0.41,0.37-0.61c0.13-0.21,0.01-0.49-0.22-0.55c-0.74-0.21-1.27,0.68-0.89,1.3
				c0.47,0.76,1.71,0.78,2.48,0.69c-0.03-0.25-0.07-0.49-0.1-0.74c-0.24,0.04-0.4,0.13-0.58,0.29c-0.26,0.23-0.04,0.62,0.27,0.64
				c0.12,0.01,0.23,0.01,0.35,0.02c0.48,0.03,0.48-0.72,0-0.75c-0.12-0.01-0.23-0.01-0.35-0.02c0.09,0.21,0.18,0.43,0.27,0.64
				c0.08-0.03,0.17-0.07,0.25-0.1c0.41-0.06,0.32-0.79-0.1-0.74c-0.4,0.05-0.79,0.05-1.19-0.03c-0.14-0.03-0.29-0.06-0.42-0.13
				c-0.08-0.03-0.15-0.08-0.2-0.14c-0.07-0.17-0.07-0.25,0.03-0.22c-0.07-0.18-0.15-0.37-0.22-0.55c-0.26,0.43-0.87,1.11-0.54,1.64
				c0.14,0.22,0.37,0.28,0.62,0.29c0.43,0.02,0.86,0,1.29,0C985.6,468.04,985.6,467.29,985.12,467.29L985.12,467.29z"/>
		</g>
	</g>
	<g>
		<g>
			<path class="st4" d="M985.06,468.76c0.94-0.08,1.87-0.17,2.81-0.25c0.48-0.04,0.48-0.79,0-0.75c-0.94,0.08-1.87,0.17-2.81,0.25
				C984.58,468.05,984.58,468.8,985.06,468.76L985.06,468.76z"/>
		</g>
	</g>
	<g>
		<g>
			<path class="st4" d="M983.05,465.13c-0.27,0.97-0.55,1.93-0.84,2.9c-0.14,0.46,0.58,0.66,0.72,0.2c0.29-0.96,0.57-1.93,0.84-2.9
				C983.9,464.86,983.18,464.66,983.05,465.13L983.05,465.13z"/>
		</g>
	</g>
	<g>
		<g>
			<path class="st4" d="M982.33,467.53c0.05,0.18,0.12,0.34,0.19,0.51c0.19,0.44,0.84,0.06,0.65-0.38
				c-0.05-0.11-0.09-0.22-0.12-0.33C982.91,466.87,982.19,467.07,982.33,467.53L982.33,467.53z"/>
		</g>
	</g>
	<g>
		<g>
			<path class="st4" d="M984.94,468.79c0.48,0,0.48-0.75,0-0.75C984.45,468.04,984.45,468.79,984.94,468.79L984.94,468.79z"/>
		</g>
	</g>
	<g>
		<g>
			<path class="st4" d="M984.94,468.78c0.48,0,0.48-0.75,0-0.75C984.45,468.03,984.45,468.78,984.94,468.78L984.94,468.78z"/>
		</g>
	</g>
	<g>
		<g>
			<path class="st4" d="M902.83,505.45c0.26-0.14,0.48-0.33,0.73-0.49c0.28-0.17,0.58-0.27,0.86-0.44c0.68-0.43,1.33-0.93,1.98-1.4
				c0.39-0.28,0.02-0.93-0.38-0.65c-0.66,0.47-1.3,0.97-1.98,1.4c-0.25,0.16-0.52,0.24-0.77,0.39c-0.29,0.16-0.52,0.39-0.82,0.54
				C902.02,505.02,902.4,505.67,902.83,505.45L902.83,505.45z"/>
		</g>
	</g>
	<g>
		<g>
			<path class="st4" d="M907.8,501.91c-2.58,1.7-5.34,3-8.3,3.91c-0.46,0.14-0.26,0.86,0.2,0.72c3.02-0.92,5.84-2.25,8.48-3.98
				C908.58,502.29,908.21,501.64,907.8,501.91L907.8,501.91z"/>
		</g>
	</g>
	<g>
		<g>
			<path class="st4" d="M961.82,485.22c4.43,0.73,9.15,1.08,13.6,0.4c1.43-0.22,0.82-2.39-0.6-2.17c-4,0.61-8.42,0.26-12.4-0.4
				C961,482.81,960.4,484.98,961.82,485.22L961.82,485.22z"/>
		</g>
	</g>
	<g>
		<g>
			<path class="st4" d="M962.43,485.26c1.45,0,1.45-2.25,0-2.25C960.98,483.01,960.98,485.26,962.43,485.26L962.43,485.26z"/>
		</g>
	</g>
	<g>
		<g>
			<path class="st4" d="M963,485.36c1.45,0,1.45-2.25,0-2.25C961.55,483.11,961.55,485.36,963,485.36L963,485.36z"/>
		</g>
	</g>
	<g id="レイヤー_4">
	</g>
	<g class="st5">
		<g class="st6">
			<path class="st8" d="M906.24,516.24c-1.13-1.5-1.43-1.79-0.91-0.88c-0.06-0.14-0.13-0.28-0.19-0.42c0.29,0.66,0.53,1.34,0.8,2.01
				c0.23,0.58,0.46,1.15,0.69,1.73c0.22,0.56,0.58,2.48,0.5,0.58c0.27-1.01,0.55-2.02,0.82-3.03c-0.07,0.11-0.13,0.21-0.2,0.32
				c1.2-0.92,2.39-1.84,3.59-2.76c-0.11,0.02-0.23,0.05-0.34,0.07c-3.08,0.65-5.15,4.43-4.19,7.38c1.05,3.25,4.09,4.88,7.38,4.19
				c2.85-0.6,4.89-3.32,4.95-6.18c0.03-1.7-0.66-3.11-1.27-4.63c-1.23-3.1-2.19-7.28-5.55-8.75c-2.87-1.25-6.57-0.94-8.21,2.15
				C902.71,510.62,903.16,514.9,906.24,516.24L906.24,516.24z"/>
		</g>
	</g>
	<g class="st5">
		<g class="st6">
			<path class="st8" d="M906.05,528.49c0.14,0.03,0.28,0.07,0.42,0.1c-0.96-0.4-1.91-0.81-2.87-1.21c0.12,0.09,0.24,0.17,0.37,0.26
				c-0.81-0.63-1.62-1.25-2.43-1.88c1.38,1.43,2.6,3.01,3.97,4.44c1.96,2.03,4.23,3.84,6.61,5.36c5.31,3.37,13.47,1.28,16.42-4.31
				c3.13-5.93,1.36-12.82-4.31-16.42c-0.49-0.31-0.95-0.63-1.42-0.97c0.81,0.63,1.62,1.25,2.43,1.88
				c-4.38-3.45-7.04-8.97-12.82-10.39c-6.08-1.51-13.3,1.95-14.76,8.38C896.26,519.93,899.53,526.87,906.05,528.49L906.05,528.49z"
				/>
		</g>
	</g>
	<g class="st5">
		<g class="st6">
			<path class="st8" d="M899.46,523.63c1.95,4.06,5.51,6.8,9.01,9.43c2.65,1.99,5.44,3.75,8.38,5.3c5.55,2.93,13.3,1.59,16.42-4.3
				c2.93-5.55,1.62-13.28-4.31-16.42c-2.4-1.27-4.71-2.66-6.92-4.23c-0.31-0.22-1.09-1.04-1.45-1.07c0.54,0.05,1.66,1.48,0.52,0.34
				c-0.33-0.33-1.71-2-0.65-0.45c1.1,1.62-0.16-0.49-0.27-0.72c-2.72-5.68-11.28-7.62-16.42-4.31
				C897.93,510.97,896.55,517.56,899.46,523.63L899.46,523.63z"/>
		</g>
	</g>
	<g class="st5">
		<g class="st6">
			<path class="st8" d="M894.41,541.95c5.61,0.75,11.23,1.38,16.87,1.88c6.27,0.56,12.27-5.92,12-12c-0.31-6.98-5.28-11.4-12-12
				c-5.64-0.51-11.26-1.13-16.87-1.88c-6.25-0.83-12.26,6.11-12,12C882.73,537.16,887.71,541.05,894.41,541.95L894.41,541.95z"/>
		</g>
	</g>
	<g class="st5">
		<g class="st6">
			<path class="st3" d="M910.59,541.86c13.95-1.23,27.86-2.89,41.72-4.93c6.73-0.99,5.07-11.99-1.6-11.79
				c-14.19,0.43-28.3,1.69-42.36,3.61c1.06,3.86,2.13,7.71,3.19,11.57c0.55-0.1,1.1-0.2,1.65-0.31c0-3.86,0-7.71,0-11.57
				c-6.31,1.17-12.63,2.33-18.94,3.5c-7.72,1.42-4.26,12.59,3.19,11.57c5.02-0.68,9.95-1.07,14.99-0.47
				c-1.41-3.41-2.83-6.83-4.24-10.24c-1.54,1.63-3.06,2.87-4.99,4c-4.93,2.88-3.07,11.56,3.03,11.18c3.83-0.24,7.65-0.48,11.48-0.71
				c0-4,0-8,0-12c-5.08,0.35-10.11,0.3-15.19-0.13c1.01,3.73,2.02,7.45,3.03,11.18c4.78-2.16,9.78-2.88,14.97-2.65c0-4,0-8,0-12
				c-10.08,0.23-20.13-0.21-30.15-1.3c1.01,3.73,2.02,7.45,3.03,11.18c2.69-1.77,6.45-1.72,9.57-2.05
				c3.56-0.38,7.13-0.66,10.71-0.86c-0.53-3.93-1.06-7.86-1.6-11.79c-8.04,2.18-16.07,4.36-24.11,6.54
				c1.06,3.86,2.13,7.71,3.19,11.57c1.48-0.42,2.97-0.85,4.45-1.27c6.41-1.83,5.29-11.92-1.6-11.79c-2.03,0.04-4.06,0.08-6.09,0.12
				c-1.41,0.03-5.43-0.95-3.32,0.8c0.31,2.42,0.63,4.85,0.94,7.27c3.34-4.5,6.86-3.28,11.81-2.41c4.94,0.86,9.93,1.52,14.92,1.9
				c3.9,0.3,9.65,1.53,12.79-1.57c1.41-1.39,1.77-2.73,3.39-3.94c1.6-1.2,3.43-1.93,4.84-3.43c5.55-5.87,2.13-17.32-6.93-15.78
				c-3.8,0.65-5.97,3.91-9.77,4.73c-2.32,0.5-4.77,0.62-7.13,0.72c-1.19,0.05-2.38,0.08-3.58,0.07c-3.36-0.65-3.69,1.41-1.01,6.19
				c4.39-4.74-0.13-10.82-5.84-10.03c-2.2,0.31-4.3,0.76-6.4,1.52c-0.99,0.4-1.97,0.81-2.96,1.23c-2.05,0.42-1.94,1.21,0.32,2.35
				c0.51,1.95,1.03,3.89,1.54,5.84c0.07-0.23,0.14-0.47,0.21-0.7c-0.92,1.2-1.84,2.39-2.76,3.59c5.13-3.65,11.45-6.08,17.72-5.74
				c5.47,0.3,13.26,2.52,17.47-2.3c4.4-5.05,1.37-12.32-4.42-14.53c-2.66-1.02-5.55-1.05-8.34-0.74c-1.64,0.18-3.25,0.48-4.85,0.87
				c-0.81,0.2-1.61,0.41-2.41,0.65c-1.88,0.23-2.12,0.47-0.72,0.74c0.92,1.2,1.84,2.39,2.76,3.59c-0.04,0.4-0.09,0.8-0.13,1.2
				c-0.92,1.2-1.84,2.39-2.76,3.59c1.82-1.36,7.76-0.8,10.11-0.77c4.13,0.04,7.95,0.68,11.82,2.15c3.9,1.49,7.36-2.26,7.6-5.79
				c0.32-4.87-3.23-7.51-7.66-7.96c-7.68-0.79-7.62,11.22,0,12c0.34,0.04,0.68,0.07,1.03,0.11c-1.41-0.59-2.83-1.17-4.24-1.76
				c0.23,0.28,0.46,0.55,0.7,0.83c-0.59-1.41-1.17-2.83-1.76-4.24c-0.02,0.34-0.05,0.69-0.07,1.03c2.53-1.93,5.06-3.86,7.6-5.79
				c-8.14-3.11-19.52-3.9-28.03-1.67c-10.06,2.64-6.77,16.45,3.27,15.2c2.08-0.26,4.06-1.04,6.09-1.54
				c1.09-0.27,2.15-0.51,3.26-0.59c0.75-0.08,1.5-0.08,2.25,0.01c0.49-1.86,0.98-3.71,1.48-5.57c-0.69-0.71-5.43-0.37-6.52-0.46
				c-2.62-0.2-5.26-0.48-7.89-0.31c-4.67,0.3-8.7,1.97-12.86,4.01c-3.81,1.87-8.2,3.26-9.5,7.69c-0.59,2.02,0.03,4.37,1.54,5.84
				c5.78,5.61,14.31-1.13,20.71-2.02c-1.95-3.34-3.89-6.69-5.84-10.03c-3.02,3.26-3.37,8.33,0.03,11.58
				c3.94,3.76,10.8,2.88,15.72,2.48c5.08-0.42,11.65-0.81,15.6-4.5c0.37-0.26,0.72-0.55,1.05-0.86c2.08-1.6,0.39-2.87-5.1-3.8
				c-1.05,0.18-2.34,1.34-3.18,1.92c-2.32,1.61-3.59,3.36-4.87,5.84c1.2-0.92,2.39-1.84,3.59-2.76c-3.73,0.75-8.88-0.5-12.69-0.96
				c-4.29-0.52-8.51-1.57-12.8-2.06c-8.42-0.97-13.69,2.51-18.57,9.08c-1.45,1.95-0.94,5.72,0.94,7.27
				c4.99,4.13,11.81,2.72,17.9,2.6c-0.53-3.93-1.06-7.86-1.6-11.79c-1.48,0.42-2.97,0.85-4.45,1.27c-7.41,2.12-4.29,13.6,3.19,11.57
				c8.04-2.18,16.07-4.36,24.11-6.54c6.38-1.73,5.31-12.19-1.6-11.79c-7.98,0.47-19.41-0.01-26.34,4.55
				c-5.24,3.45-2.81,10.54,3.03,11.18c10.03,1.1,20.07,1.53,30.15,1.3c7.74-0.17,7.7-11.66,0-12c-7.42-0.33-14.3,1.24-21.03,4.28
				c-5.95,2.69-2.24,10.73,3.03,11.18c5.08,0.44,10.11,0.48,15.19,0.13c7.65-0.53,7.74-12.48,0-12c-3.83,0.24-7.65,0.48-11.48,0.71
				c1.01,3.73,2.02,7.45,3.03,11.18c2.76-1.62,5.22-3.55,7.42-5.88c3.86-4.09,0.78-9.64-4.24-10.24
				c-6.13-0.74-12.11,0.07-18.18,0.89c1.06,3.86,2.13,7.71,3.19,11.57c6.31-1.17,12.63-2.33,18.94-3.5c5.69-1.05,5.77-10.58,0-11.57
				c-2.88-0.49-5.23-0.55-8.03,0.31c-7.61,2.33-4.25,12.59,3.19,11.57c12.99-1.78,26.07-2.79,39.17-3.18
				c-0.53-3.93-1.06-7.86-1.6-11.79c-12.8,1.89-25.64,3.37-38.53,4.5C902.96,530.53,902.88,542.53,910.59,541.86L910.59,541.86z"/>
		</g>
	</g>
	<g class="st5">
		<g class="st6">
			<path class="st3" d="M901.63,506.83c0.24-0.2,0.48-0.4,0.72-0.6c0.88-0.74,0.36-2.23-0.66-2.51c-0.26-0.07-0.53-0.14-0.79-0.21
				c0,0.96,0,1.93,0,2.89c4.63-1.82,9.27,0.42,13.93,0.52c1.34,0.03,2.33-0.34,3.87-0.36c1.94-0.02,3.75,0.7,5.64,0.67
				c0.69-0.01,1.24-0.46,1.45-1.1c0.58-1.78-0.76-2.53-2.08-3.5c-0.25,0.93-0.5,1.86-0.76,2.8c0.25-0.02,0.5-0.04,0.75-0.07
				c1.38-0.12,2.17-2.04,0.76-2.8c-2.45-1.31-3.66-0.79-6.55-0.58c-4.01,0.29-8.11,0.37-11.99-0.76c-1.86-0.54-2.65,2.35-0.8,2.89
				c2.73,0.79,5.33,1,8.17,1.02c2.79,0.02,7.21-1.29,9.65,0.02c0.25-0.93,0.5-1.86,0.76-2.8c-0.25,0.02-0.5,0.04-0.75,0.07
				c-1.53,0.14-1.98,1.9-0.76,2.8c0.23,0.04,0.47,0.08,0.7,0.12c0.48-0.37,0.96-0.73,1.45-1.1c-1.86,0.03-3.76-0.65-5.64-0.67
				c-2.32-0.01-4.44,0.15-6.79-0.19c-3.79-0.56-8.15-1.3-11.81,0.14c-1.3,0.51-1.54,2.48,0,2.89c0.26,0.07,0.53,0.14,0.79,0.21
				c-0.22-0.84-0.44-1.67-0.66-2.51c-0.24,0.2-0.48,0.4-0.72,0.6C898.02,505.95,900.16,508.06,901.63,506.83L901.63,506.83z"/>
		</g>
	</g>
	<g class="st5">
		<g class="st6">
			<path class="st3" d="M905.86,504.3c3.79,0.67,7.58,0.94,11.42,0.75c1.92-0.09,1.93-3.09,0-3c-3.57,0.17-7.1-0.02-10.62-0.64
				C904.77,501.07,903.96,503.96,905.86,504.3L905.86,504.3z"/>
		</g>
	</g>
	<g class="st5">
		<g class="st6">
			<path class="st3" d="M922.64,504.79c1.93,0,1.93-3,0-3C920.71,501.79,920.7,504.79,922.64,504.79L922.64,504.79z"/>
		</g>
	</g>
	<g class="st5">
		<g class="st6">
			<path class="st3" d="M922.69,504.74c1.93,0,1.93-3,0-3C920.76,501.74,920.75,504.74,922.69,504.74L922.69,504.74z"/>
		</g>
	</g>
	<g class="st5">
		<g class="st6">
			<path class="st3" d="M922.59,504.64c1.93,0,1.93-3,0-3C920.66,501.64,920.66,504.64,922.59,504.64L922.59,504.64z"/>
		</g>
	</g>
	<g class="st5">
		<g class="st6">
			<path class="st3" d="M923.31,504.98c1.93,0,1.93-3,0-3C921.38,501.98,921.37,504.98,923.31,504.98L923.31,504.98z"/>
		</g>
	</g>
	<g class="st5">
		<g class="st6">
			<path class="st3" d="M922.38,504.62c1.93,0,1.93-3,0-3C920.44,501.62,920.44,504.62,922.38,504.62L922.38,504.62z"/>
		</g>
	</g>
	<g class="st5">
		<g class="st6">
			<path class="st3" d="M922.42,504.55c1.93,0,1.93-3,0-3C920.49,501.55,920.49,504.55,922.42,504.55L922.42,504.55z"/>
		</g>
	</g>
	<g class="st5">
		<g class="st6">
			<path class="st3" d="M922.17,504.62c1.93,0,1.93-3,0-3C920.24,501.62,920.24,504.62,922.17,504.62L922.17,504.62z"/>
		</g>
	</g>
	<g class="st5">
		<g class="st6">
			<path class="st3" d="M922.26,504.59c0.05-0.01,0.09-0.02,0.14-0.04c1.64-0.41,1.3-2.97-0.4-2.95c-0.42,0.01-0.86,0.1-1.28,0.16
				c-0.8,0.11-1.24,1.14-1.05,1.85c0.24,0.86,1.04,1.16,1.85,1.05c0.13-0.02,0.25-0.04,0.38-0.05c0.22-0.04,0.25-0.04,0.1,0
				c-0.13-0.98-0.27-1.96-0.4-2.95c-0.05,0.01-0.09,0.02-0.14,0.04c-0.79,0.2-1.26,1.08-1.05,1.85
				C920.63,504.34,921.47,504.79,922.26,504.59L922.26,504.59z"/>
		</g>
	</g>
	<g class="st5">
		<g class="st6">
			<path class="st3" d="M883.17,520.18c1.93,0,1.93-3,0-3C881.24,517.18,881.24,520.18,883.17,520.18L883.17,520.18z"/>
		</g>
	</g>
	<g>
		<g>
			<path class="st3" d="M987.54,460.78c-0.87,1.75-0.22,4.09,1.84,4.63c1.19,0.31,2.24-0.52,2.31-1.72
				c0.06-1.01-0.44-1.85-1.07-2.59c-0.63-0.74-1.5-1.4-2.52-1.43c-1.08-0.03-2.01,0.68-2.15,1.76c-0.13,1.02,0.39,1.97,1.07,2.7
				c0.36,0.38,0.78,0.71,1.2,1.01c0.32,0.24,0.81,0.41,1.09,0.62c-0.13-0.49-0.26-0.97-0.39-1.46c-0.01,0.05-0.02,0.09-0.03,0.14
				c0.13-0.22,0.26-0.44,0.39-0.66c-0.2,0.16-0.66,0.37-0.91,0.44c0.39,0.05,0.77,0.1,1.16,0.15c-0.03-0.02-0.06-0.05-0.09-0.07
				c0.25,0.43,0.5,0.86,0.74,1.3c0-0.04,0-0.07,0-0.11c-0.05-1.93-3.05-1.93-3,0c0.03,1.19,1.1,1.91,2.22,1.56
				c0.88-0.28,2.24-0.96,2.42-1.95c0.09-0.49,0.05-1.12-0.39-1.46c-0.5-0.39-1.07-0.63-1.57-1c-0.22-0.16-0.43-0.33-0.61-0.53
				c-0.08-0.08-0.16-0.16-0.23-0.25c-0.11-0.27-0.16-0.2-0.14,0.2c-0.18,0.18-0.36,0.36-0.54,0.54c0.09-0.04,0.17-0.08,0.26-0.11
				c-0.25,0.07-0.5,0.14-0.76,0.2c0.26-0.02,0.42,0.24,0.58,0.44c0.1,0.1,0.18,0.22,0.25,0.34c0.06,0.16,0.07,0.16,0.03,0
				c0.13-0.22,0.26-0.44,0.39-0.66c-0.04,0.04-0.08,0.08-0.12,0.12c0.35-0.15,0.71-0.29,1.06-0.44c0.33,0.01-0.02,0.09,0.08-0.07
				c0.07-0.11-0.09,0.14,0.03-0.1C990.99,460.57,988.4,459.05,987.54,460.78L987.54,460.78z"/>
		</g>
	</g>
	<g>
		<g>
			<path class="st3" d="M986.44,461.45c-0.52,0.41-0.7,1.01-0.76,1.64c0.93-0.25,1.86-0.5,2.8-0.76c-0.04-0.08-0.08-0.16-0.12-0.24
				c-0.35-0.73-1.4-0.92-2.05-0.54c-0.75,0.44-0.89,1.32-0.54,2.05c0.04,0.08,0.08,0.16,0.12,0.24c0.28,0.59,1.09,0.85,1.69,0.69
				c0.68-0.19,1.04-0.78,1.1-1.45c-0.33,0.54-0.37,0.7-0.12,0.48c0.64-0.5,0.53-1.6,0-2.12
				C987.93,460.82,987.08,460.95,986.44,461.45L986.44,461.45z"/>
		</g>
	</g>
	<g>
		<g>
			<path class="st3" d="M985.76,461.58c-0.19,0.4-0.39,0.81-0.58,1.21c-0.35,0.73-0.2,1.62,0.54,2.05c0.66,0.38,1.7,0.19,2.05-0.54
				c0.19-0.4,0.39-0.81,0.58-1.21c0.35-0.73,0.2-1.62-0.54-2.05C987.16,460.66,986.12,460.85,985.76,461.58L985.76,461.58z"/>
		</g>
	</g>
	<g>
		<g>
			<path class="st3" d="M985.88,463.76c-0.17,1.53,0.92,2.7,2.25,3.22c-0.22-0.13-0.44-0.26-0.66-0.39
				c0.02,0.02,0.05,0.04,0.07,0.07c-0.15-0.35-0.29-0.71-0.44-1.06c0,0.03,0,0.06,0.01,0.09c0.07-0.25,0.14-0.5,0.2-0.76
				c0.34-0.3,0.39-0.37,0.16-0.21c-0.09,0.05-0.18,0.1-0.27,0.14c-0.72,0.37-0.93,1.38-0.54,2.05c0.43,0.73,1.33,0.91,2.05,0.54
				c0.43-0.22,0.88-0.51,1.14-0.93c0.4-0.65,0.32-1.49-0.22-2.03c-0.25-0.25-0.5-0.29-0.79-0.46c0.15,0.06,0.14,0.05-0.01-0.03
				c0.11,0.08,0.12,0.08,0.05,0.01c-0.07-0.08-0.06-0.07,0.03,0.03c-0.08-0.16-0.09-0.16-0.02-0.02c-0.04-0.18-0.05-0.18-0.01-0.01
				c0-0.09,0-0.18,0.02-0.27c0.09-0.78-0.75-1.53-1.5-1.5C986.49,462.3,985.97,462.92,985.88,463.76L985.88,463.76z"/>
		</g>
	</g>
	<g>
		<g>
			<path class="st3" d="M984.83,462.36c-0.3,1.02-0.59,2.04-0.88,3.07c-0.17,0.63-0.63,1.49-0.05,2.01
				c0.57,0.52,1.42-0.33,0.85-0.85c0.08,0.08,0.59-1.68,0.63-1.82c0.2-0.7,0.4-1.4,0.6-2.1
				C986.2,461.93,985.04,461.62,984.83,462.36L984.83,462.36z"/>
		</g>
	</g>
	<g>
		<g>
			<path class="st3" d="M987.67,466.6c-0.59,0.09-1.18,0.17-1.77,0.26c-0.29,0.04-0.59,0.09-0.88,0.13
				c-0.2,0.03-0.57,0.17-0.74,0.11c0.14,0.14,0.28,0.28,0.42,0.42c0.07,0.19,0.06-0.12,0.1-0.24c0.06-0.18,0.13-0.37,0.19-0.55
				c0.26-0.73-0.9-1.04-1.16-0.32c-0.22,0.62-0.74,1.82,0.36,1.9c0.54,0.04,1.19-0.17,1.73-0.24c0.69-0.1,1.38-0.2,2.06-0.3
				C988.75,467.65,988.42,466.49,987.67,466.6L987.67,466.6z"/>
		</g>
	</g>
	<g>
		<g>
			<path class="st3" d="M984.58,466.26c0.02,0.12,0.03,0.23,0.05,0.35c0.08,0.58,1.05,0.56,1.16,0c0.12-0.65,0.31-1.23,0.61-1.82
				c-0.37-0.05-0.73-0.1-1.1-0.14c0.07,0.32,0.01,0.61-0.18,0.87c0.37,0.15,0.73,0.31,1.1,0.46c0.08-0.51,0.15-1.02,0.23-1.53
				c0.1-0.65-0.7-1.07-1.1-0.46c-0.14,0.25-0.32,0.45-0.54,0.63c0.33,0.09,0.67,0.18,1,0.26c-0.03-0.16-0.07-0.31-0.1-0.47
				c-0.13-0.59-1.01-0.56-1.16,0c-0.17,0.66-0.26,1.31-0.27,1.99c-0.01,0.6,0.82,0.82,1.12,0.3c0.24-0.42,0.51-0.75,0.86-1.08
				c-0.33-0.09-0.67-0.18-1-0.26c-0.05,0.21-0.1,0.43-0.15,0.64c0.35,0.2,0.69,0.4,1.04,0.61c0.25-0.53,0.57-0.94,1.01-1.31
				c-0.33-0.09-0.67-0.18-1-0.26c0.02,0.12-0.08,1.16-0.4,1.22c0.19,0.05,0.39,0.1,0.58,0.15c0.1-0.08,0.19-0.15,0.29-0.23
				c-0.31-0.24-0.63-0.48-0.94-0.73c-0.28,0.46-0.58,0.9-0.93,1.32c0.34,0.14,0.68,0.28,1.02,0.42c-0.02-0.23,0.15-0.48,0.19-0.71
				c0.1-0.54-0.02-1.08,0.03-1.62c0.09-1,0.69-1.9,0.67-2.91c-0.01-0.77-1.21-0.77-1.2,0c0.01,0.95-0.6,1.86-0.68,2.82
				c-0.04,0.45,0.09,0.93,0.02,1.38c-0.06,0.42-0.26,0.62-0.23,1.03c0.03,0.46,0.67,0.86,1.02,0.42c0.41-0.5,0.78-1.01,1.11-1.56
				c0.35-0.58-0.47-1.23-0.94-0.73c-0.56,0.6-0.84,1.24-0.29,1.93c0.14,0.17,0.39,0.2,0.58,0.15c1.06-0.22,1.39-1.81,1.24-2.7
				c-0.08-0.49-0.7-0.52-1-0.26c-0.53,0.44-0.91,0.94-1.2,1.56c-0.33,0.69,0.61,1.26,1.04,0.61c0.34-0.52,0.39-0.97,0.27-1.57
				c-0.09-0.47-0.69-0.55-1-0.26c-0.43,0.39-0.76,0.82-1.05,1.32c0.37,0.1,0.75,0.2,1.12,0.3c0.01-0.58,0.08-1.11,0.22-1.67
				c-0.39,0-0.77,0-1.16,0c0.03,0.16,0.07,0.31,0.1,0.47c0.1,0.46,0.69,0.55,1,0.26c0.29-0.27,0.51-0.54,0.73-0.87
				c-0.37-0.15-0.73-0.31-1.1-0.46c-0.08,0.51-0.15,1.02-0.23,1.53c-0.09,0.63,0.73,1.1,1.1,0.46c0.34-0.58,0.41-1.13,0.3-1.79
				c-0.09-0.51-0.87-0.58-1.1-0.14c-0.35,0.68-0.59,1.35-0.73,2.1c0.39,0,0.77,0,1.16,0c-0.02-0.12-0.03-0.23-0.05-0.35
				C985.63,465.18,984.47,465.5,984.58,466.26L984.58,466.26z"/>
		</g>
	</g>
	<g class="st5">
		<g class="st6">
			<path class="st3" d="M885.82,521.8c7.72,0,7.73-12,0-12C878.1,509.8,878.08,521.8,885.82,521.8L885.82,521.8z"/>
		</g>
	</g>
	<g class="st5">
		<g class="st6">
			<path class="st3" d="M885.09,521.89c7.72,0,7.73-12,0-12C877.36,509.89,877.35,521.89,885.09,521.89L885.09,521.89z"/>
		</g>
	</g>
	<g class="st5">
		<g class="st6">
			<path class="st3" d="M883.55,522.53c7.72,0,7.73-12,0-12C875.83,510.53,875.82,522.53,883.55,522.53L883.55,522.53z"/>
		</g>
	</g>
	<g class="st5">
		<g class="st6">
			<path class="st3" d="M883.71,522.44c7.72,0,7.73-12,0-12C875.99,510.44,875.98,522.44,883.71,522.44L883.71,522.44z"/>
		</g>
	</g>
	<g class="st5">
		<g class="st6">
			<path class="st3" d="M886.84,521.41c7.72,0,7.73-12,0-12C879.12,509.41,879.11,521.41,886.84,521.41L886.84,521.41z"/>
		</g>
	</g>
	<g class="st5">
		<g class="st6">
			<path class="st3" d="M887.22,521.19c7.72,0,7.73-12,0-12C879.5,509.19,879.49,521.19,887.22,521.19L887.22,521.19z"/>
		</g>
	</g>
	<g class="st5">
		<g class="st6">
			<path class="st3" d="M887.41,521c7.72,0,7.73-12,0-12C879.69,509,879.68,521,887.41,521L887.41,521z"/>
		</g>
	</g>
	<g class="st5">
		<g class="st6">
			<path class="st3" d="M887.86,520.81c7.72,0,7.73-12,0-12C880.14,508.81,880.13,520.81,887.86,520.81L887.86,520.81z"/>
		</g>
	</g>
	<g class="st5">
		<g class="st6">
			<path class="st3" d="M886.11,521.54c7.72,0,7.73-12,0-12C878.38,509.54,878.37,521.54,886.11,521.54L886.11,521.54z"/>
		</g>
	</g>
	<g class="st5">
		<g class="st6">
			<path class="st3" d="M888.31,520.65c7.72,0,7.73-12,0-12C880.59,508.65,880.57,520.65,888.31,520.65L888.31,520.65z"/>
		</g>
	</g>
	<g>
		<g>
			<path class="st3" d="M912.34,488.03c1.88-0.28,3.62-1.31,5.38-1.99c1.89-0.72,3.81-1.38,5.73-2.04c1.82-0.62,1.04-3.52-0.8-2.89
				c-1.92,0.66-3.83,1.32-5.73,2.04c-1.74,0.66-3.54,1.72-5.38,1.99C909.64,485.42,910.45,488.31,912.34,488.03L912.34,488.03z"/>
		</g>
	</g>
	<g>
		<g>
			<path class="st3" d="M911.71,488.41c1.93,0,1.93-3,0-3C909.78,485.41,909.77,488.41,911.71,488.41L911.71,488.41z"/>
		</g>
	</g>
	<g>
		<g>
			<path class="st3" d="M912.14,488.37c1.93,0,1.93-3,0-3C910.21,485.37,910.2,488.37,912.14,488.37L912.14,488.37z"/>
		</g>
	</g>
	<g>
		<g>
			<path class="st3" d="M912.23,488.41c1.93,0,1.93-3,0-3C910.3,485.41,910.3,488.41,912.23,488.41L912.23,488.41z"/>
		</g>
	</g>
	<g>
		<g>
			<path class="st3" d="M913.19,488.03c1.93,0,1.93-3,0-3C911.26,485.03,911.26,488.03,913.19,488.03L913.19,488.03z"/>
		</g>
	</g>
	<g>
		<g>
			<path class="st3" d="M914.05,487.74c1.93,0,1.93-3,0-3C912.12,484.74,912.12,487.74,914.05,487.74L914.05,487.74z"/>
		</g>
	</g>
	<g>
		<g>
			<path class="st3" d="M914.96,487.41c1.93,0,1.93-3,0-3C913.03,484.41,913.03,487.41,914.96,487.41L914.96,487.41z"/>
		</g>
	</g>
	<g>
		<g>
			<path class="st3" d="M916.02,487.03c1.93,0,1.93-3,0-3C914.09,484.03,914.08,487.03,916.02,487.03L916.02,487.03z"/>
		</g>
	</g>
	<g>
		<g>
			<path class="st3" d="M917.07,486.6c1.93,0,1.93-3,0-3C915.14,483.6,915.14,486.6,917.07,486.6L917.07,486.6z"/>
		</g>
	</g>
	<g>
		<g>
			<path class="st3" d="M918.27,486.12c1.93,0,1.93-3,0-3C916.34,483.12,916.33,486.12,918.27,486.12L918.27,486.12z"/>
		</g>
	</g>
	<g>
		<g>
			<path class="st3" d="M919.27,485.73c1.93,0,1.93-3,0-3C917.34,482.73,917.34,485.73,919.27,485.73L919.27,485.73z"/>
		</g>
	</g>
	<g>
		<g>
			<path class="st3" d="M920.42,485.3c1.93,0,1.93-3,0-3C918.49,482.3,918.49,485.3,920.42,485.3L920.42,485.3z"/>
		</g>
	</g>
	<g>
		<g>
			<path class="st3" d="M921.62,484.82c1.93,0,1.93-3,0-3C919.69,481.82,919.68,484.82,921.62,484.82L921.62,484.82z"/>
		</g>
	</g>
	<g>
		<g>
			<path class="st3" d="M922.57,484.44c1.93,0,1.93-3,0-3C920.64,481.44,920.64,484.44,922.57,484.44L922.57,484.44z"/>
		</g>
	</g>
	<g>
		<g>
			<path class="st3" d="M923.05,484.25c1.93,0,1.93-3,0-3C921.12,481.25,921.12,484.25,923.05,484.25L923.05,484.25z"/>
		</g>
	</g>
	<g>
		<g>
			<path class="st3" d="M923.48,484.11c1.93,0,1.93-3,0-3C921.55,481.11,921.55,484.11,923.48,484.11L923.48,484.11z"/>
		</g>
	</g>
	<g>
		<g>
			<path class="st3" d="M924.01,483.87c1.93,0,1.93-3,0-3C922.08,480.87,922.08,483.87,924.01,483.87L924.01,483.87z"/>
		</g>
	</g>
	<g>
		<g>
			<path class="st3" d="M924.49,483.77c1.93,0,1.93-3,0-3C922.56,480.77,922.56,483.77,924.49,483.77L924.49,483.77z"/>
		</g>
	</g>
	<g>
		<g>
			<path class="st3" d="M924.82,483.63c1.93,0,1.93-3,0-3C922.89,480.63,922.89,483.63,924.82,483.63L924.82,483.63z"/>
		</g>
	</g>
	<g>
		<g>
			<path class="st3" d="M922,484.68c1.93,0,1.93-3,0-3C920.07,481.68,920.07,484.68,922,484.68L922,484.68z"/>
		</g>
	</g>
	<g>
		<g>
			<path class="st3" d="M921.38,484.92c1.93,0,1.93-3,0-3C919.45,481.92,919.44,484.92,921.38,484.92L921.38,484.92z"/>
		</g>
	</g>
	<g>
		<g>
			<path class="st3" d="M921.04,485.02c1.93,0,1.93-3,0-3C919.11,482.02,919.11,485.02,921.04,485.02L921.04,485.02z"/>
		</g>
	</g>
	<g>
		<g>
			<path class="st3" d="M920.18,485.4c1.93,0,1.93-3,0-3C918.25,482.4,918.25,485.4,920.18,485.4L920.18,485.4z"/>
		</g>
	</g>
	<g>
		<g>
			<path class="st3" d="M918.74,485.88c1.93,0,1.93-3,0-3C916.81,482.88,916.81,485.88,918.74,485.88L918.74,485.88z"/>
		</g>
	</g>
	<g>
		<g>
			<path class="st3" d="M912.31,488.44c0.9-0.48,1.9-0.81,2.85-1.2c0.75-0.3,1.28-1,1.05-1.85c-0.2-0.71-1.09-1.35-1.85-1.05
				c-1.19,0.48-2.43,0.9-3.57,1.5C909.09,486.75,910.61,489.34,912.31,488.44L912.31,488.44z"/>
		</g>
	</g>
	<g>
		<g>
			<path class="st3" d="M913.57,487.94c1.93,0,1.93-3,0-3C911.64,484.94,911.64,487.94,913.57,487.94L913.57,487.94z"/>
		</g>
	</g>
	<g>
		<g>
			<path class="st3" d="M913.1,488.08c1.93,0,1.93-3,0-3C911.17,485.08,911.16,488.08,913.1,488.08L913.1,488.08z"/>
		</g>
	</g>
	<g>
		<g>
			<path class="st3" d="M914.39,487.6c1.93,0,1.93-3,0-3C912.46,484.6,912.45,487.6,914.39,487.6L914.39,487.6z"/>
		</g>
	</g>
	<g>
		<g>
			<path class="st3" d="M915.39,487.27c1.93,0,1.93-3,0-3C913.46,484.27,913.46,487.27,915.39,487.27L915.39,487.27z"/>
		</g>
	</g>
	<g>
		<g>
			<path class="st3" d="M917.64,486.4c1.93,0,1.93-3,0-3C915.71,483.4,915.71,486.4,917.64,486.4L917.64,486.4z"/>
		</g>
	</g>
	<g>
		<g>
			<path class="st3" d="M916.49,486.84c1.93,0,1.93-3,0-3C914.56,483.84,914.56,486.84,916.49,486.84L916.49,486.84z"/>
		</g>
	</g>
	<g>
		<g>
			<path class="st3" d="M918.74,485.93c1.93,0,1.93-3,0-3C916.81,482.93,916.81,485.93,918.74,485.93L918.74,485.93z"/>
		</g>
	</g>
	<g>
		<g>
			<path class="st3" d="M919.8,485.54c1.93,0,1.93-3,0-3C917.87,482.54,917.86,485.54,919.8,485.54L919.8,485.54z"/>
		</g>
	</g>
	<g>
		<g>
			<path class="st3" d="M945.55,462.57c0.37,0.15,0.71,0.39,1,0.66c1.29,1.16,3.11-0.29,2.36-1.82c-0.22-0.44-0.43-0.88-0.65-1.32
				c-0.29-0.59-1.09-0.86-1.69-0.69c-0.69,0.19-1.02,0.78-1.1,1.45c-0.03,0.25-0.18,0.48-0.35,0.62c0.35-0.15,0.71-0.29,1.06-0.44
				c-1.08-0.03-1.73-0.6-2.7,0.25c-0.39,0.34-0.53,0.98-0.39,1.46c0.23,0.78,0.93,1.18,1.58,1.61c0.12-0.91,0.24-1.83,0.36-2.74
				c-0.17,0.06-0.35,0.13-0.52,0.19c-1.62,0.59-1.3,2.78,0.4,2.95c0.87,0.09,1.75,0.12,2.62,0.12c1.37-0.01,2.19-2.17,0.76-2.8
				c-0.62-0.27-1.21-0.48-1.88-0.58c-0.95-0.14-1.89,0.38-1.9,1.45c0,0.6,0.18,1.11,0.47,1.63c0.56-0.73,1.13-1.47,1.69-2.2
				c-1.49-0.25-2.83-0.63-3.52,1.07c0.13-0.22,0.26-0.44,0.39-0.66c-0.04,0.03-0.08,0.06-0.11,0.1c0.22-0.13,0.44-0.26,0.66-0.39
				c-0.37,0.06-1.16,0.17-1.54,0.79c-0.42,0.69-0.31,1.54,0.26,2.11c1.01,1.01,2.53,1.17,3.86,0.86c1.88-0.44,1.08-3.33-0.8-2.89
				c-0.33,0.08-0.76,0.1-0.99-0.14c0.13,0.22,0.26,0.44,0.39,0.66c-0.01-0.04-0.03-0.08-0.04-0.12c-0.05,0.39-0.1,0.77-0.15,1.16
				c0.02-0.04,0.04-0.09,0.06-0.13c-0.18,0.18-0.36,0.36-0.54,0.54c0.05-0.02,0.1-0.04,0.15-0.07c-0.25,0.07-0.5,0.14-0.76,0.2
				c1.09-0.08,1.7-0.37,2.14-1.43c-0.23,0.3-0.46,0.6-0.69,0.9c0.04-0.02,0.08-0.04,0.12-0.06c-0.25,0.07-0.5,0.14-0.76,0.2
				c0.35,0.02,0.72,0.12,1.07,0.18c1.27,0.21,2.36-0.98,1.69-2.2c-0.13-0.24-0.15-0.28-0.06-0.12c-0.63,0.48-1.27,0.96-1.9,1.45
				c0.39,0.06,0.8,0.12,1.16,0.28c0.25-0.93,0.5-1.86,0.76-2.8c-0.88,0.01-1.75-0.03-2.62-0.12c0.13,0.98,0.27,1.96,0.4,2.95
				c0.17-0.06,0.35-0.13,0.52-0.19c1.23-0.45,1.47-2,0.36-2.74c-0.14-0.09-0.53-0.36-0.56-0.38c0.13,0.22,0.26,0.44,0.39,0.66
				c-0.01-0.03-0.02-0.06-0.03-0.09c-0.13,0.49-0.26,0.97-0.39,1.46c0.03-0.03,0.07-0.06,0.1-0.09c-0.35,0.15-0.71,0.29-1.06,0.44
				c0.42,0.02,0.85,0.24,1.29,0.27c0.57,0.03,1.07-0.15,1.47-0.56c0.69-0.7,0.95-1.67,1.07-2.61c-0.93,0.25-1.86,0.5-2.8,0.76
				c0.22,0.44,0.43,0.88,0.65,1.32c0.79-0.61,1.57-1.21,2.36-1.82c-0.71-0.64-1.45-1.07-2.32-1.43c-0.75-0.31-1.65,0.33-1.85,1.05
				C944.27,461.58,944.8,462.26,945.55,462.57L945.55,462.57z"/>
		</g>
	</g>
	<g>
		<g>
			<path class="st4" d="M961.1,489.24c4.13,1.01,10.11,2.72,14.19,0.99c1.77-0.75,0.25-3.33-1.51-2.59c-1.64,0.69-4.5,0.02-6.19-0.2
				c-1.92-0.25-3.8-0.63-5.68-1.09C960.02,485.88,959.22,488.78,961.1,489.24L961.1,489.24z"/>
		</g>
	</g>
	<g>
		<g>
			<path class="st3" d="M960.75,490.57c4.58,1.8,15.12,5.05,16.07-2.52c0.12-0.94-1.06-1.74-1.9-1.45c-2.5,0.88-5.03,1.44-7.69,1.47
				c-1.33,0.01-8.04-0.02-7.9-2.43c-0.63,0.48-1.27,0.96-1.9,1.45c4.37,1.19,8.81,1.97,13.34,2.21c1.79,0.09,6.76,1.04,7.47-1.66
				c0.51-1.95-1.49-2.69-2.97-2.73c-4.25-0.11-12.63,2.21-16.06-1.1c-0.49,0.84-0.97,1.67-1.46,2.51c2.91,0.46,5.84,0.93,8.78,1.12
				c1.4,0.09,2.8,0.13,4.2,0.06c0.41-0.02,4.62-0.75,4.92-0.38c1.2,1.51,3.31-0.62,2.12-2.12c-1.5-1.89-4.37-0.69-6.34-0.54
				c-4.31,0.32-8.63-0.36-12.88-1.03c-1.37-0.22-2.64,1.37-1.46,2.51c2.01,1.94,4.43,2.14,7.11,2.28
				c1.25,0.06,11.29-0.01,11.15-0.57c0.13-0.49,0.26-0.97,0.39-1.46c-1.13,1.21-6.86,0.02-8.41-0.16c-3.08-0.35-6.1-1-9.09-1.82
				c-0.98-0.27-1.84,0.48-1.9,1.45c-0.45,7.93,15.04,5.39,19.39,3.86c-0.63-0.48-1.27-0.96-1.9-1.45
				c-0.49,3.88-10.34,0.39-12.28-0.37C959.75,486.97,958.97,489.87,960.75,490.57L960.75,490.57z"/>
		</g>
	</g>
	<g>
		<g>
			<path class="st3" d="M959.14,486.02c1.93,0,1.93-3,0-3C957.21,483.02,957.2,486.02,959.14,486.02L959.14,486.02z"/>
		</g>
	</g>
	<g>
		<g>
			<path class="st3" d="M959.2,485.96c1.93,0,1.93-3,0-3C957.27,482.96,957.27,485.96,959.2,485.96L959.2,485.96z"/>
		</g>
	</g>
	<g>
		<g>
			<path class="st3" d="M958.57,485.05c0.8,0.48,1.83,0.56,2.73,0.73c0.6,0.12,1.21-0.17,1.38-0.79c0.15-0.55-0.19-1.27-0.79-1.38
				c-0.42-0.08-0.85-0.17-1.27-0.25c-0.31-0.06-0.65-0.09-0.92-0.26C958.46,482.36,957.33,484.3,958.57,485.05L958.57,485.05z"/>
		</g>
	</g>
	<g>
		<g>
			<path class="st3" d="M959.53,485.38c4.59,0.94,9.56,1.64,14.23,1.03c1.42-0.18,1.43-2.44,0-2.25c-4.46,0.58-9.25-0.05-13.63-0.95
				C958.72,482.92,958.11,485.09,959.53,485.38L959.53,485.38z"/>
		</g>
	</g>
	<g>
		<g>
			<path class="st3" d="M971.49,486.57c1.45-0.01,2.86-0.27,4.21-0.81c0.57-0.23,0.95-0.75,0.79-1.38
				c-0.14-0.54-0.82-1.01-1.38-0.79c-1.17,0.47-2.35,0.72-3.61,0.73C970.04,484.33,970.04,486.58,971.49,486.57L971.49,486.57z"/>
		</g>
	</g>
	<g>
		<g>
			<path class="st3" d="M975.86,486.09c1.45,0,1.45-2.25,0-2.25C974.41,483.84,974.41,486.09,975.86,486.09L975.86,486.09z"/>
		</g>
	</g>
	<g>
		<g>
			<path class="st3" d="M976.02,486.09c1.45,0,1.45-2.25,0-2.25C974.57,483.84,974.57,486.09,976.02,486.09L976.02,486.09z"/>
		</g>
	</g>
	<g>
		<g>
			<path class="st3" d="M975.86,486.03c1.45,0,1.45-2.25,0-2.25C974.41,483.78,974.41,486.03,975.86,486.03L975.86,486.03z"/>
		</g>
	</g>
	<g>
		<g>
			<path class="st3" d="M976.15,486.13c1.45,0,1.45-2.25,0-2.25C974.7,483.88,974.7,486.13,976.15,486.13L976.15,486.13z"/>
		</g>
	</g>
</g>
<g id="レイヤー_6">
	<rect x="698" y="109" class="st9" width="567" height="180"/>
	<text transform="matrix(1 0 0 1 698 229.5605)" class="st10 st11 st12">-tributor</text>
</g>
</svg>
